<svg width="145" height="140" viewBox="0 0 145 140" fill="none" xmlns="http://www.w3.org/2000/svg">
<path d="M33.7654 32.9412V0H120.824V128.235C120.824 134.733 115.557 140 109.06 140H0.824219V32.9412H33.7654Z" fill="#D6DAEC" style="fill:#D6DAEC;fill:color(display-p3 0.8392 0.8549 0.9255);fill-opacity:1;"/>
<path d="M33.7654 32.9412H0.824219L33.7654 0V32.9412Z" fill="#B0B7D3" style="fill:#B0B7D3;fill:color(display-p3 0.6902 0.7176 0.8275);fill-opacity:1;"/>
<path d="M19.0586 54.7061H47.8821" stroke="#B0B7D3" style="stroke:#B0B7D3;stroke:color(display-p3 0.6902 0.7176 0.8275);stroke-opacity:1;" stroke-width="3.52941" stroke-linecap="square" stroke-linejoin="round"/>
<path d="M19.0586 67.6475H47.8821" stroke="#B0B7D3" style="stroke:#B0B7D3;stroke:color(display-p3 0.6902 0.7176 0.8275);stroke-opacity:1;" stroke-width="3.52941" stroke-linecap="square" stroke-linejoin="round"/>
<path d="M19.0586 85.8828V122.942H62.588" stroke="#B0B7D3" style="stroke:#B0B7D3;stroke:color(display-p3 0.6902 0.7176 0.8275);stroke-opacity:1;" stroke-width="3.52941" stroke-linecap="square" stroke-linejoin="round"/>
<path d="M19.6484 108.235L31.6484 94.902L42.6484 107.124L59.6484 88.2354" stroke="#B0B7D3" style="stroke:#B0B7D3;stroke:color(display-p3 0.6902 0.7176 0.8275);stroke-opacity:1;" stroke-width="3.52941" stroke-linecap="square" stroke-linejoin="round"/>
<circle cx="103.767" cy="52.3532" r="39.4118" fill="white" stroke="#D6DAEC" style="fill:white;fill-opacity:1;stroke:#D6DAEC;stroke:color(display-p3 0.8392 0.8549 0.9255);stroke-opacity:1;" stroke-width="3.52941"/>
<path d="M115.529 41.1768C115.529 47.6743 110.262 52.9415 103.765 52.9415C97.2672 52.9415 92 47.6743 92 41.1768C92 34.6793 97.2672 29.4121 103.765 29.4121C110.262 29.4121 115.529 34.6793 115.529 41.1768Z" stroke="#706C86" style="stroke:#706C86;stroke:color(display-p3 0.4392 0.4235 0.5255);stroke-opacity:1;" stroke-width="3.52941" stroke-linecap="square" stroke-linejoin="round"/>
<path d="M124.943 71.7649C124.943 61.369 115.462 52.9414 103.766 52.9414C92.0709 52.9414 82.5898 61.369 82.5898 71.7649" stroke="#706C86" style="stroke:#706C86;stroke:color(display-p3 0.4392 0.4235 0.5255);stroke-opacity:1;" stroke-width="3.52941" stroke-linecap="square" stroke-linejoin="round"/>
</svg>
