<svg width="120" height="120" viewBox="0 0 120 120" fill="none" xmlns="http://www.w3.org/2000/svg">
<path fill-rule="evenodd" clip-rule="evenodd" d="M0 18.8718C0 8.44919 8.44919 0 18.8718 0H32V4.92308H18.8718C11.1681 4.92308 4.92308 11.1681 4.92308 18.8718V32H0V18.8718Z" fill="#B0B7D3" style="fill:#B0B7D3;fill:color(display-p3 0.6902 0.7176 0.8275);fill-opacity:1;"/>
<path fill-rule="evenodd" clip-rule="evenodd" d="M120 18.8718C120 8.44919 111.551 0 101.128 0H88V4.92308H101.128C108.832 4.92308 115.077 11.1681 115.077 18.8718V32H120V18.8718Z" fill="#B0B7D3" style="fill:#B0B7D3;fill:color(display-p3 0.6902 0.7176 0.8275);fill-opacity:1;"/>
<path fill-rule="evenodd" clip-rule="evenodd" d="M0 101.128C0 111.551 8.44919 120 18.8718 120H32V115.077H18.8718C11.1681 115.077 4.92308 108.832 4.92308 101.128V88H0V101.128Z" fill="#B0B7D3" style="fill:#B0B7D3;fill:color(display-p3 0.6902 0.7176 0.8275);fill-opacity:1;"/>
<path fill-rule="evenodd" clip-rule="evenodd" d="M120 101.128C120 111.551 111.551 120 101.128 120H88V115.077H101.128C108.832 115.077 115.077 108.832 115.077 101.128V88H120V101.128Z" fill="#B0B7D3" style="fill:#B0B7D3;fill:color(display-p3 0.6902 0.7176 0.8275);fill-opacity:1;"/>
<path d="M38.5 29V21.498H98.5V75.2222C98.5 78.9654 95.4655 82 91.7222 82H90.9996" stroke="#B0B7D3" style="stroke:#B0B7D3;stroke:color(display-p3 0.6902 0.7176 0.8275);stroke-opacity:1;" stroke-width="3"/>
<path d="M59.5 29.5H30.5V89.9993H83.7222C87.4655 89.9993 90.5 86.9648 90.5 83.2215V43.5" stroke="#B0B7D3" style="stroke:#B0B7D3;stroke:color(display-p3 0.6902 0.7176 0.8275);stroke-opacity:1;" stroke-width="3" stroke-linecap="round"/>
<path d="M22 37H83V91.2222C83 94.9655 79.9655 98 76.2222 98H22V37Z" fill="#D6DAEC" style="fill:#D6DAEC;fill:color(display-p3 0.8392 0.8549 0.9255);fill-opacity:1;"/>
<path d="M77.9648 84.4336L55.6832 62.5664L42.692 75.322L36.6043 69.7352L27.0333 78.9644" stroke="#706C86" style="stroke:#706C86;stroke:color(display-p3 0.4392 0.4235 0.5255);stroke-opacity:1;" stroke-width="3" stroke-linecap="round" stroke-linejoin="round"/>
<circle cx="6.5" cy="6.5" r="6.5" transform="matrix(-1 0 0 1 48 46)" fill="white" style="fill:white;fill-opacity:1;"/>
<path d="M64 29.5C64 28.6716 64.6716 28 65.5 28H68.5C69.3284 28 70 28.6716 70 29.5C70 30.3284 69.3284 31 68.5 31H65.5C64.6716 31 64 30.3284 64 29.5Z" fill="#B0B7D3" style="fill:#B0B7D3;fill:color(display-p3 0.6902 0.7176 0.8275);fill-opacity:1;"/>
</svg>
