<svg width="141" height="144" viewBox="0 0 141 144" fill="none" xmlns="http://www.w3.org/2000/svg">
<path d="M72.3516 46.7066H90.5869L108.822 29.0596" stroke="#B0B7D3" style="stroke:#B0B7D3;stroke:color(display-p3 0.6902 0.7176 0.8275);stroke-opacity:1;" stroke-width="3" stroke-linecap="round" stroke-linejoin="round"/>
<path d="M53.5312 29.0588L70.0018 11.3665V2" stroke="#B0B7D3" style="stroke:#B0B7D3;stroke:color(display-p3 0.6902 0.7176 0.8275);stroke-opacity:1;" stroke-width="3" stroke-linecap="round" stroke-linejoin="round"/>
<path d="M85.293 22.0001L95.8812 10.2354" stroke="#B0B7D3" style="stroke:#B0B7D3;stroke:color(display-p3 0.6902 0.7176 0.8275);stroke-opacity:1;" stroke-width="3" stroke-linecap="round" stroke-linejoin="round"/>
<path d="M117.06 60V52C116.726 35.3333 106.217 2 66.8576 2C30.2524 2 17.4433 30.832 15.0224 48.274C14.681 50.733 14.1355 53.1635 13.1371 55.4364L1.82173 81.1956C1.24115 82.5173 2.20927 84 3.65285 84H18.6629V107C18.6629 109.761 20.9014 112 23.6629 112H38.744V142H50.7927" stroke="#B0B7D3" style="stroke:#B0B7D3;stroke:color(display-p3 0.6902 0.7176 0.8275);stroke-opacity:1;" stroke-width="3" stroke-linecap="square" stroke-linejoin="round"/>
<path d="M115.882 83.1772V71.0596C115.882 69.955 114.986 69.0596 113.882 69.0596H86.1172C85.0126 69.0596 84.1172 69.955 84.1172 71.0596V83.1772" stroke="#706C86" style="stroke:#706C86;stroke:color(display-p3 0.4392 0.4235 0.5255);stroke-opacity:1;" stroke-width="3" stroke-linejoin="round"/>
<path d="M59.4102 82H139.41V130C139.41 136.627 134.038 142 127.41 142H71.4102C64.7827 142 59.4102 136.627 59.4102 130V82Z" fill="#B0B7D3" stroke="#B0B7D3" style="fill:#B0B7D3;fill:color(display-p3 0.6902 0.7176 0.8275);fill-opacity:1;stroke:#B0B7D3;stroke:color(display-p3 0.6902 0.7176 0.8275);stroke-opacity:1;" stroke-width="2"/>
<path d="M64.1172 95.4102H134.705" stroke="#706C86" style="stroke:#706C86;stroke:color(display-p3 0.4392 0.4235 0.5255);stroke-opacity:1;" stroke-width="3" stroke-linecap="square" stroke-linejoin="round"/>
<path d="M87.6484 96.1182V109.059H112.354V96.1182" stroke="#706C86" style="stroke:#706C86;stroke:color(display-p3 0.4392 0.4235 0.5255);stroke-opacity:1;" stroke-width="3" stroke-linecap="round" stroke-linejoin="round"/>
<circle cx="49.4113" cy="33.1769" r="5.29412" stroke="#B0B7D3" style="stroke:#B0B7D3;stroke:color(display-p3 0.6902 0.7176 0.8275);stroke-opacity:1;" stroke-width="3"/>
<circle cx="81.1769" cy="26.1183" r="5.29412" stroke="#B0B7D3" style="stroke:#B0B7D3;stroke:color(display-p3 0.6902 0.7176 0.8275);stroke-opacity:1;" stroke-width="3"/>
<path d="M72.3539 47.2941C72.3539 50.218 69.9836 52.5882 67.0597 52.5882C64.1359 52.5882 61.7656 50.218 61.7656 47.2941C61.7656 44.3703 64.1359 42 67.0597 42C69.9836 42 72.3539 44.3703 72.3539 47.2941Z" stroke="#B0B7D3" style="stroke:#B0B7D3;stroke:color(display-p3 0.6902 0.7176 0.8275);stroke-opacity:1;" stroke-width="3"/>
</svg>
