<svg width="124" height="122" viewBox="0 0 124 122" fill="none" xmlns="http://www.w3.org/2000/svg">
<path fill-rule="evenodd" clip-rule="evenodd" d="M113.704 9.50221C114.364 10.1627 114.364 11.2336 113.704 11.8941L14.0864 111.511C13.426 112.172 12.3551 112.172 11.6946 111.511C11.0341 110.851 11.0341 109.78 11.6946 109.12L111.312 9.50221C111.972 8.84171 113.043 8.84171 113.704 9.50221Z" fill="#706C86" style="fill:#706C86;fill:color(display-p3 0.4392 0.4235 0.5255);fill-opacity:1;"/>
<rect x="16.3008" y="15.1064" width="17" height="17" rx="1" fill="#706C86" style="fill:#706C86;fill:color(display-p3 0.4392 0.4235 0.5255);fill-opacity:1;"/>
<rect x="50.3008" y="23.6064" width="17" height="17" rx="1" fill="#B0B7D3" style="fill:#B0B7D3;fill:color(display-p3 0.6902 0.7176 0.8275);fill-opacity:1;"/>
<rect x="21.1992" y="48.0068" width="17" height="17" rx="1" fill="#D6DAEC" style="fill:#D6DAEC;fill:color(display-p3 0.8392 0.8549 0.9255);fill-opacity:1;"/>
<circle cx="104.699" cy="59.3066" r="8.5" fill="#D6DAEC" style="fill:#D6DAEC;fill:color(display-p3 0.8392 0.8549 0.9255);fill-opacity:1;"/>
<circle cx="77.5" cy="76.3066" r="8.5" fill="#D6DAEC" style="fill:#D6DAEC;fill:color(display-p3 0.8392 0.8549 0.9255);fill-opacity:1;"/>
<circle cx="99.5977" cy="96.707" r="8.5" fill="#B0B7D3" style="fill:#B0B7D3;fill:color(display-p3 0.6902 0.7176 0.8275);fill-opacity:1;"/>
<circle cx="62.1992" cy="101.807" r="8.5" fill="#706C86" style="fill:#706C86;fill:color(display-p3 0.4392 0.4235 0.5255);fill-opacity:1;"/>
<path fill-rule="evenodd" clip-rule="evenodd" d="M2.50078 0.635742C3.43967 0.635742 4.20078 1.38746 4.20078 2.31475V118.007H121.501C122.44 118.007 123.201 118.759 123.201 119.686C123.201 120.613 122.44 121.365 121.501 121.365H2.50078C1.5619 121.365 0.800781 120.613 0.800781 119.686V2.31475C0.800781 1.38746 1.5619 0.635742 2.50078 0.635742Z" fill="#B0B7D3" style="fill:#B0B7D3;fill:color(display-p3 0.6902 0.7176 0.8275);fill-opacity:1;"/>
</svg>
