<svg width="160" height="140" viewBox="0 0 160 140" fill="none" xmlns="http://www.w3.org/2000/svg">
<path d="M0 0.588867H150.588C155.786 0.588867 160 4.80266 160 10.0006V139.412H0V0.588867Z" fill="#E6E9F6" style="fill:#E6E9F6;fill:color(display-p3 0.9020 0.9137 0.9647);fill-opacity:1;"/>
<path d="M1.76562 2.35352V137.648H158.236" stroke="#B0B7D3" style="stroke:#B0B7D3;stroke:color(display-p3 0.6902 0.7176 0.8275);stroke-opacity:1;" stroke-width="3.52941" stroke-linecap="square"/>
<path d="M10 86.9081C18.1088 86.9081 23.7066 73.1276 25.9746 66.4241C28.922 57.7126 31.9307 56.3629 34.0565 63.0693C35.9434 69.0221 43.295 93.1177 50.0699 93.1177C58.9742 93.1177 74.0961 58.4732 77.7855 56.3629C83.0163 53.3709 85.9462 86.9081 101.652 86.9081C114.006 86.9081 119.011 53.7118 119.011 54.7977L120.136 90.6653C120.136 93.1177 124.04 53.5188 125.826 53.4114C128.059 53.2773 134.141 97.4111 150 97.4111" stroke="#B0B7D3" style="stroke:#B0B7D3;stroke:color(display-p3 0.6902 0.7176 0.8275);stroke-opacity:1;" stroke-width="3.52941" stroke-linecap="square"/>
<circle cx="122" cy="57.4131" r="28" stroke="#706C86" style="stroke:#706C86;stroke:color(display-p3 0.4392 0.4235 0.5255);stroke-opacity:1;" stroke-width="3.52941" stroke-linecap="square" stroke-linejoin="round" stroke-dasharray="4.71 8.24"/>
</svg>
