<svg width="136" height="128" viewBox="0 0 136 128" fill="none" xmlns="http://www.w3.org/2000/svg">
<path d="M22.1181 90.8828V90.8828C22.1181 106.477 34.7595 119.118 50.3534 119.118H53.8828" stroke="#B0B7D3" style="stroke:#B0B7D3;stroke:color(display-p3 0.6902 0.7176 0.8275);stroke-opacity:1;" stroke-width="4.70588" stroke-linecap="round" stroke-linejoin="round"/>
<rect x="53.8828" y="110.883" width="29.4118" height="16.4706" rx="8.23529" fill="#706C86" style="fill:#706C86;fill:color(display-p3 0.4392 0.4235 0.5255);fill-opacity:1;"/>
<path d="M113.882 48.5298C113.882 23.1897 93.3397 2.64746 67.9995 2.64746C42.6594 2.64746 22.1172 23.1897 22.1172 48.5298" stroke="#B0B7D3" style="stroke:#B0B7D3;stroke:color(display-p3 0.6902 0.7176 0.8275);stroke-opacity:1;" stroke-width="4.70588"/>
<path d="M82.1193 72.7456H53.884M72.7075 58.3339H53.884M98.5898 65.5397C98.5898 50.9475 87.0019 39.1182 72.7075 39.1182H63.2957C49.0013 39.1182 37.4134 50.9475 37.4134 65.5397C37.4134 80.132 49.0013 91.9613 63.2957 91.9613H72.7075C74.2624 91.9613 75.7852 91.8213 77.2646 91.5531L89.1781 96.7652V85.922C94.9263 81.0758 98.5898 73.7445 98.5898 65.5397Z" stroke="#706C86" style="stroke:#706C86;stroke:color(display-p3 0.4392 0.4235 0.5255);stroke-opacity:1;" stroke-width="4.70588" stroke-miterlimit="10" stroke-linecap="square" stroke-linejoin="round"/>
<path d="M0.941406 71.4715C0.941406 58.8014 11.2125 48.5303 23.8826 48.5303H24.4708V94.4126H23.8826C11.2125 94.4126 0.941406 84.1415 0.941406 71.4715Z" fill="#B0B7D3" style="fill:#B0B7D3;fill:color(display-p3 0.6902 0.7176 0.8275);fill-opacity:1;"/>
<path d="M0.941406 62.6479C0.941406 54.851 7.26209 48.5303 15.0591 48.5303H24.4708V94.4126H15.059C7.26209 94.4126 0.941406 88.0919 0.941406 80.295V62.6479Z" fill="#B0B7D3" style="fill:#B0B7D3;fill:color(display-p3 0.6902 0.7176 0.8275);fill-opacity:1;"/>
<path d="M135.059 62.6479C135.059 54.851 128.738 48.5303 120.941 48.5303H111.529V94.4126H120.941C128.738 94.4126 135.059 88.0919 135.059 80.295V62.6479Z" fill="#B0B7D3" style="fill:#B0B7D3;fill:color(display-p3 0.6902 0.7176 0.8275);fill-opacity:1;"/>
</svg>
