<svg width="144" height="132" viewBox="0 0 144 132" fill="none" xmlns="http://www.w3.org/2000/svg">
<path d="M0.234375 0.941406H143.764V84.036C143.764 93.6975 136.624 101.53 127.816 101.53H16.1821C7.37441 101.53 0.234375 93.6975 0.234375 84.036V0.941406Z" fill="#D6DAEC" style="fill:#D6DAEC;fill:color(display-p3 0.8392 0.8549 0.9255);fill-opacity:1;"/>
<path fill-rule="evenodd" clip-rule="evenodd" d="M84 101.059H60V113.059H84V101.059Z" fill="#B0B7D3" style="fill:#B0B7D3;fill:color(display-p3 0.6902 0.7176 0.8275);fill-opacity:1;"/>
<path fill-rule="evenodd" clip-rule="evenodd" d="M84.5 111.059H60.5V123.059H49.5V131.059H94.5V123.059H84.5V111.059Z" fill="#D6DAEC" style="fill:#D6DAEC;fill:color(display-p3 0.8392 0.8549 0.9255);fill-opacity:1;"/>
<rect x="9.64844" y="10.6465" width="124.706" height="68.5294" fill="white" style="fill:white;fill-opacity:1;"/>
<mask id="mask0_13786_61492" style="mask-type:alpha" maskUnits="userSpaceOnUse" x="0" y="0" width="144" height="102">
<path d="M0.234375 0.941406H143.764V84.036C143.764 93.6975 136.624 101.53 127.816 101.53H16.1821C7.37441 101.53 0.234375 93.6975 0.234375 84.036V0.941406Z" fill="#D6DAEC" style="fill:#D6DAEC;fill:color(display-p3 0.8392 0.8549 0.9255);fill-opacity:1;"/>
</mask>
<g mask="url(#mask0_13786_61492)">
<path opacity="0.3" d="M94.352 0.941406H0.234375V104.076L94.352 0.941406Z" fill="#B1BCE6" style="fill:#B1BCE6;fill:color(display-p3 0.6957 0.7371 0.9027);fill-opacity:1;"/>
</g>
<path fill-rule="evenodd" clip-rule="evenodd" d="M104.226 26.3335C101.26 26.3335 98.8549 28.7696 98.8549 31.7747C98.8549 34.7798 101.26 37.2159 104.226 37.2159C107.192 37.2159 109.597 34.7798 109.597 31.7747C109.597 28.7696 107.192 26.3335 104.226 26.3335ZM95.2744 31.7747C95.2744 26.7662 99.282 22.7061 104.226 22.7061C109.169 22.7061 113.177 26.7662 113.177 31.7747C113.177 36.7831 109.169 40.8433 104.226 40.8433C102.401 40.8433 100.704 40.2903 99.2893 39.3408L89.553 49.2045C89.7812 50.0049 89.9035 50.8508 89.9035 51.7257C89.9035 56.7341 85.8958 60.7943 80.9521 60.7943C76.0084 60.7943 72.0007 56.7341 72.0007 51.7257C72.0007 50.8508 72.123 50.0049 72.3511 49.2045L67.207 43.993C65.6257 45.4185 63.5422 46.2845 61.259 46.2845C59.4346 46.2845 57.7376 45.7315 56.3225 44.782L48.2027 53.0082C48.0986 53.1136 47.9848 53.2034 47.8643 53.2775C48.4175 54.4561 48.727 55.7749 48.727 57.1668C48.727 62.1753 44.7194 66.2355 39.7756 66.2355C34.8319 66.2355 30.8242 62.1753 30.8242 57.1668C30.8242 52.1584 34.8319 48.0982 39.7756 48.0982C42.0588 48.0982 44.1423 48.9642 45.7236 50.3897L53.7907 42.217C52.8534 40.7834 52.3076 39.0642 52.3076 37.2159C52.3076 32.2074 56.3153 28.1472 61.259 28.1472C66.2027 28.1472 70.2104 32.2074 70.2104 37.2159C70.2104 38.6078 69.9008 39.9266 69.3477 41.1052C69.4682 41.1793 69.5819 41.2691 69.6861 41.3745L74.1198 45.8663C75.7617 43.9032 78.2133 42.657 80.9521 42.657C83.6909 42.657 86.1425 43.9032 87.7844 45.8663L96.7574 36.7758C95.8202 35.3422 95.2744 33.623 95.2744 31.7747ZM61.259 31.7747C58.2928 31.7747 55.8882 34.2108 55.8882 37.2159C55.8882 40.2209 58.2928 42.657 61.259 42.657C64.2252 42.657 66.6298 40.2209 66.6298 37.2159C66.6298 34.2108 64.2252 31.7747 61.259 31.7747ZM80.9521 46.2845C77.9859 46.2845 75.5813 48.7206 75.5813 51.7257C75.5813 54.7307 77.9859 57.1668 80.9521 57.1668C83.9183 57.1668 86.3229 54.7307 86.3229 51.7257C86.3229 48.7206 83.9183 46.2845 80.9521 46.2845ZM39.7756 51.7257C36.8094 51.7257 34.4048 54.1618 34.4048 57.1668C34.4048 60.1719 36.8094 62.608 39.7756 62.608C42.7419 62.608 45.1465 60.1719 45.1465 57.1668C45.1465 54.1618 42.7419 51.7257 39.7756 51.7257Z" fill="#706C86" style="fill:#706C86;fill:color(display-p3 0.4392 0.4235 0.5255);fill-opacity:1;"/>
</svg>
