<svg width="142" height="140" viewBox="0 0 142 140" fill="none" xmlns="http://www.w3.org/2000/svg">
<path d="M139.823 12.3526C139.823 17.8754 135.346 22.3526 129.823 22.3526C124.3 22.3526 119.823 17.8754 119.823 12.3526C119.823 6.82975 124.3 2.3526 129.823 2.3526C135.346 2.3526 139.823 6.82975 139.823 12.3526Z" stroke="#706C86" style="stroke:#706C86;stroke:color(display-p3 0.4392 0.4235 0.5255);stroke-opacity:1;" stroke-width="3.52941" stroke-linecap="round" stroke-linejoin="round"/>
<path d="M139.823 70.0001C139.823 75.5229 135.346 80.0001 129.823 80.0001C124.3 80.0001 119.823 75.5229 119.823 70.0001C119.823 64.4772 124.3 60.0001 129.823 60.0001C135.346 60.0001 139.823 64.4772 139.823 70.0001Z" stroke="#706C86" style="stroke:#706C86;stroke:color(display-p3 0.4392 0.4235 0.5255);stroke-opacity:1;" stroke-width="3.52941" stroke-linecap="round" stroke-linejoin="round"/>
<path d="M139.823 127.648C139.823 133.17 135.346 137.648 129.823 137.648C124.3 137.648 119.823 133.17 119.823 127.648C119.823 122.125 124.3 117.648 129.823 117.648C135.346 117.648 139.823 122.125 139.823 127.648Z" stroke="#706C86" style="stroke:#706C86;stroke:color(display-p3 0.4392 0.4235 0.5255);stroke-opacity:1;" stroke-width="3.52941" stroke-linecap="round" stroke-linejoin="round"/>
<path d="M118.056 70H88.6445" stroke="#706C86" style="stroke:#706C86;stroke:color(display-p3 0.4392 0.4235 0.5255);stroke-opacity:1;" stroke-width="3.52941" stroke-linecap="round" stroke-linejoin="round"/>
<path d="M82.7656 49.9996H95.3146C99.2131 49.9996 102.373 46.8393 102.373 42.9408V19.4114C102.373 15.5129 105.534 12.3525 109.432 12.3525H118.06" stroke="#706C86" style="stroke:#706C86;stroke:color(display-p3 0.4392 0.4235 0.5255);stroke-opacity:1;" stroke-width="3.52941" stroke-linecap="round" stroke-linejoin="round"/>
<path d="M82.7656 90.0004H95.3146C99.2131 90.0004 102.373 93.1607 102.373 97.0592V120.589C102.373 124.487 105.534 127.647 109.432 127.647H118.06" stroke="#706C86" style="stroke:#706C86;stroke:color(display-p3 0.4392 0.4235 0.5255);stroke-opacity:1;" stroke-width="3.52941" stroke-linecap="round" stroke-linejoin="round"/>
<circle cx="46.2925" cy="69.9995" r="45.8824" fill="#D6DAEC" style="fill:#D6DAEC;fill:color(display-p3 0.8392 0.8549 0.9255);fill-opacity:1;"/>
<path fill-rule="evenodd" clip-rule="evenodd" d="M18.2793 81.5415C18.4264 81.6905 18.6156 81.7651 18.8468 81.7651H22.0311C22.2623 81.7651 22.4515 81.6905 22.5986 81.5415C22.7458 81.3925 22.8193 81.2009 22.8193 80.9667V68.2894L31.2058 81.1903C31.2688 81.2541 31.3634 81.3712 31.4895 81.5415C31.6366 81.6905 31.8678 81.7651 32.1831 81.7651H35.0837C35.3149 81.7651 35.5041 81.6905 35.6512 81.5415C35.7983 81.3712 35.8719 81.1796 35.8719 80.9667V60.2104C35.8719 59.9763 35.7983 59.7847 35.6512 59.6356C35.5041 59.4866 35.3149 59.4121 35.0837 59.4121H31.8678C31.6577 59.4121 31.479 59.4866 31.3319 59.6356C31.1847 59.7847 31.1112 59.9763 31.1112 60.2104V73.3029L22.6932 59.9869C22.6512 59.9017 22.5566 59.7847 22.4095 59.6356C22.2623 59.4866 22.0311 59.4121 21.7158 59.4121H18.8468C18.6156 59.4121 18.4264 59.4866 18.2793 59.6356C18.1322 59.7847 18.0586 59.9763 18.0586 60.2104V80.9667C18.0586 81.2009 18.1322 81.3925 18.2793 81.5415ZM41.3219 81.7651C41.0907 81.7651 40.9015 81.6905 40.7544 81.5415C40.6073 81.3925 40.5337 81.2009 40.5337 80.9667V60.2104C40.5337 59.9763 40.6073 59.7847 40.7544 59.6356C40.9015 59.4866 41.0907 59.4121 41.3219 59.4121H44.8215C45.0527 59.4121 45.2419 59.4866 45.389 59.6356C45.5361 59.7847 45.6097 59.9763 45.6097 60.2104V77.4861H55.3834C55.6146 77.4861 55.8037 77.5606 55.9509 77.7096C56.098 77.8586 56.1716 78.0502 56.1716 78.2844V80.9667C56.1716 81.2009 56.098 81.3925 55.9509 81.5415C55.8037 81.6905 55.6146 81.7651 55.3834 81.7651H41.3219ZM59.857 81.7651C59.6258 81.7651 59.4366 81.6905 59.2895 81.5415C59.1424 81.3925 59.0688 81.2009 59.0688 80.9667V60.2104C59.0688 59.9763 59.1424 59.7847 59.2895 59.6356C59.4366 59.4866 59.6258 59.4121 59.857 59.4121H68.4642C70.1667 59.4121 71.638 59.6782 72.8781 60.2104C74.1392 60.7426 75.1166 61.5516 75.8102 62.6373C76.5248 63.7017 76.8821 65.0323 76.8821 66.6289C76.8821 68.2468 76.5248 69.588 75.8102 70.6524C75.1166 71.6956 74.1392 72.4726 72.8781 72.9835C71.638 73.4945 70.1667 73.7499 68.4642 73.7499H64.2394V80.9667C64.2394 81.2009 64.1658 81.3925 64.0187 81.5415C63.8716 81.6905 63.6824 81.7651 63.4512 81.7651H59.857ZM64.1448 69.7903H68.3065C69.3785 69.7903 70.2087 69.5242 70.7972 68.9919C71.4068 68.4597 71.7115 67.6614 71.7115 66.597C71.7115 65.6603 71.4383 64.8939 70.8918 64.2978C70.3663 63.7017 69.5046 63.4037 68.3065 63.4037H64.1448V69.7903Z" fill="#706C86" style="fill:#706C86;fill:color(display-p3 0.4392 0.4235 0.5255);fill-opacity:1;"/>
</svg>
