<svg width="124" height="122" viewBox="0 0 124 122" fill="none" xmlns="http://www.w3.org/2000/svg">
<path d="M4.19922 29.0703H34.1992" stroke="#D6DAEC" style="stroke:#D6DAEC;stroke:color(display-p3 0.8392 0.8549 0.9255);stroke-opacity:1;" stroke-dasharray="4 4"/>
<path d="M4.19922 79.0703H78.1992" stroke="#D6DAEC" style="stroke:#D6DAEC;stroke:color(display-p3 0.8392 0.8549 0.9255);stroke-opacity:1;" stroke-dasharray="4 4"/>
<rect x="34.1992" y="28.5703" width="14" height="93" fill="#B0B7D3" style="fill:#B0B7D3;fill:color(display-p3 0.6902 0.7176 0.8275);fill-opacity:1;"/>
<rect x="56.1992" y="68.5703" width="14" height="53" fill="#D6DAEC" style="fill:#D6DAEC;fill:color(display-p3 0.8392 0.8549 0.9255);fill-opacity:1;"/>
<rect x="12.1992" y="86.5703" width="14" height="35" fill="#D6DAEC" style="fill:#D6DAEC;fill:color(display-p3 0.8392 0.8549 0.9255);fill-opacity:1;"/>
<rect x="78.1992" y="78.5703" width="14" height="43" fill="#B0B7D3" style="fill:#B0B7D3;fill:color(display-p3 0.6902 0.7176 0.8275);fill-opacity:1;"/>
<rect x="100.199" y="101.57" width="14" height="20" fill="#D6DAEC" style="fill:#D6DAEC;fill:color(display-p3 0.8392 0.8549 0.9255);fill-opacity:1;"/>
<path d="M121.699 61.5703L108.633 48.5036M116.599 29.2703C116.599 44.2925 104.421 56.4703 89.3992 56.4703C74.3771 56.4703 62.1992 44.2925 62.1992 29.2703C62.1992 14.2482 74.3771 2.07031 89.3992 2.07031C104.421 2.07031 116.599 14.2482 116.599 29.2703Z" stroke="#706C86" style="stroke:#706C86;stroke:color(display-p3 0.4392 0.4235 0.5255);stroke-opacity:1;" stroke-width="3" stroke-linecap="square" stroke-linejoin="round"/>
<path fill-rule="evenodd" clip-rule="evenodd" d="M2.50078 11.1992C3.43967 11.1992 4.20078 11.9509 4.20078 12.8782V118.57H121.501C122.44 118.57 123.201 119.322 123.201 120.249C123.201 121.177 122.44 121.928 121.501 121.928H2.50078C1.5619 121.928 0.800781 121.177 0.800781 120.249V12.8782C0.800781 11.9509 1.5619 11.1992 2.50078 11.1992Z" fill="#B0B7D3" style="fill:#B0B7D3;fill:color(display-p3 0.6902 0.7176 0.8275);fill-opacity:1;"/>
<path fill-rule="evenodd" clip-rule="evenodd" d="M89.6055 9.25488C90.5251 9.25488 91.2706 9.9942 91.2706 10.9062V14.3126C92.284 14.4286 93.2141 14.6417 94.0611 14.9519C95.4402 15.4473 96.5807 16.094 97.4824 16.8922C98.4106 17.6903 99.1135 18.5435 99.5909 19.4517C100.068 20.3599 100.32 21.2406 100.347 22.0938C100.347 22.3139 100.267 22.5203 100.108 22.713C99.9489 22.8781 99.75 22.9607 99.5113 22.9607H95.0557C94.7904 22.9607 94.5518 22.9056 94.3396 22.7956C94.1274 22.6855 93.955 22.4928 93.8224 22.2176C93.6633 21.502 93.1859 20.8828 92.3902 20.3599C91.6211 19.8095 90.6133 19.5342 89.3668 19.5342C88.0672 19.5342 87.0329 19.7819 86.2637 20.2773C85.5211 20.7727 85.1498 21.5296 85.1498 22.5479C85.1498 23.2084 85.3355 23.7726 85.7068 24.2404C86.1046 24.6808 86.7544 25.0799 87.6561 25.4376C88.5844 25.7679 89.8044 26.1394 91.3161 26.5523C93.65 27.0477 95.5463 27.6394 97.005 28.3274C98.4637 29.0155 99.5378 29.9099 100.227 31.0108C100.917 32.0841 101.262 33.4465 101.262 35.0978C101.262 36.9417 100.758 38.5242 99.75 39.8453C98.7687 41.1663 97.4028 42.1846 95.6524 42.9002C94.3566 43.4173 92.8961 43.7401 91.2706 43.8686V47.2348C91.2706 48.1468 90.5251 48.8861 89.6055 48.8861C88.6858 48.8861 87.9403 48.1468 87.9403 47.2348V43.873C86.1143 43.7381 84.5343 43.3726 83.2005 42.7763C81.5031 42.0057 80.2168 41.0012 79.3416 39.7627C78.4664 38.5242 78.0023 37.2032 77.9492 35.7996C77.9492 35.5794 78.0288 35.3867 78.1879 35.2216C78.347 35.029 78.546 34.9326 78.7846 34.9326H83.0414C83.3862 34.9326 83.6514 35.0152 83.837 35.1803C84.0227 35.3179 84.1951 35.4968 84.3542 35.717C84.5398 36.1849 84.8316 36.639 85.2294 37.0793C85.6537 37.5197 86.224 37.8912 86.94 38.1939C87.6561 38.4692 88.5446 38.6068 89.6055 38.6068C91.3294 38.6068 92.6157 38.3178 93.4644 37.7398C94.3396 37.1619 94.7772 36.3775 94.7772 35.3867C94.7772 34.6712 94.5385 34.0932 94.0611 33.6529C93.6102 33.2125 92.8809 32.8135 91.8731 32.4557C90.8918 32.0979 89.5789 31.7126 87.9346 31.2998C85.9455 30.8594 84.2481 30.2952 82.8425 29.6072C81.4633 28.8916 80.4157 27.9834 79.6996 26.8825C79.0101 25.7541 78.6653 24.3643 78.6653 22.713C78.6653 21.0617 79.1029 19.603 79.9781 18.337C80.8533 17.0435 82.0866 16.039 83.6779 15.3234C84.9145 14.746 86.3353 14.3929 87.9403 14.2642V10.9062C87.9403 9.9942 88.6858 9.25488 89.6055 9.25488Z" fill="#706C86" style="fill:#706C86;fill:color(display-p3 0.4392 0.4235 0.5255);fill-opacity:1;"/>
</svg>
