<svg width="105" height="113" viewBox="0 0 105 113" fill="none" xmlns="http://www.w3.org/2000/svg">
<rect y="0.799805" width="102" height="74" rx="8" fill="#D6DAEC" style="fill:#D6DAEC;fill:color(display-p3 0.8392 0.8549 0.9255);fill-opacity:1;"/>
<path d="M17 34.5893V42.0103M26.7143 29.6419V46.9577M46.1429 29.6419V46.9577M85 32.1156V44.484M36.4286 22.2209V54.3788M55.8571 22.6331V53.9665M75.2857 22.2209V54.3788M65.5714 14.7998V61.7998" stroke="#B0B7D3" style="stroke:#B0B7D3;stroke:color(display-p3 0.6902 0.7176 0.8275);stroke-opacity:1;" stroke-width="4" stroke-linecap="round" stroke-linejoin="round"/>
<path d="M97.0449 77.8223C97.0449 92.4152 85.215 104.245 70.6221 104.245C56.0291 104.245 44.1992 92.4152 44.1992 77.8223C44.1992 63.2293 56.0291 51.3994 70.6221 51.3994C85.215 51.3994 97.0449 63.2293 97.0449 77.8223Z" fill="white" style="fill:white;fill-opacity:1;"/>
<path d="M101.999 109.199L89.3059 96.5061M97.0449 77.8223C97.0449 92.4152 85.215 104.245 70.6221 104.245C56.0291 104.245 44.1992 92.4152 44.1992 77.8223C44.1992 63.2293 56.0291 51.3994 70.6221 51.3994C85.215 51.3994 97.0449 63.2293 97.0449 77.8223Z" stroke="#706C86" style="stroke:#706C86;stroke:color(display-p3 0.4392 0.4235 0.5255);stroke-opacity:1;" stroke-width="4" stroke-linecap="square" stroke-linejoin="round"/>
<path d="M57.801 76.6805L67.7453 86.6248L84.5264 69.8438" stroke="#706C86" style="stroke:#706C86;stroke:color(display-p3 0.4392 0.4235 0.5255);stroke-opacity:1;" stroke-width="4"/>
</svg>
