<svg width="122" height="91" viewBox="0 0 122 91" fill="none" xmlns="http://www.w3.org/2000/svg">
<path d="M117.348 4.45117L103.748 43.5512L94.3984 40.1512" stroke="#B0B7D3" style="stroke:#B0B7D3;stroke:color(display-p3 0.6902 0.7176 0.8275);stroke-opacity:1;" stroke-width="3" stroke-linecap="round" stroke-linejoin="round"/>
<path d="M5.14844 80.9512L18.7484 63.9512L35.7484 80.9512L45.9484 70.7512" stroke="#B0B7D3" style="stroke:#B0B7D3;stroke:color(display-p3 0.6902 0.7176 0.8275);stroke-opacity:1;" stroke-width="3" stroke-linecap="round" stroke-linejoin="round"/>
<path d="M102.098 87.8008L82.0977 67.8008" stroke="#706C86" style="stroke:#706C86;stroke:color(display-p3 0.4392 0.4235 0.5255);stroke-opacity:1;" stroke-width="4" stroke-linecap="square" stroke-linejoin="round"/>
<path d="M8.89844 80.6992C8.89844 82.9084 7.10758 84.6992 4.89844 84.6992C2.6893 84.6992 0.898438 82.9084 0.898438 80.6992C0.898438 78.4901 2.6893 76.6992 4.89844 76.6992C7.10758 76.6992 8.89844 78.4901 8.89844 80.6992Z" fill="#706C86" style="fill:#706C86;fill:color(display-p3 0.4392 0.4235 0.5255);fill-opacity:1;"/>
<path d="M121.098 4.19922C121.098 6.40836 119.307 8.19922 117.098 8.19922C114.889 8.19922 113.098 6.40836 113.098 4.19922C113.098 1.99008 114.889 0.199219 117.098 0.199219C119.307 0.199219 121.098 1.99008 121.098 4.19922Z" fill="#706C86" style="fill:#706C86;fill:color(display-p3 0.4392 0.4235 0.5255);fill-opacity:1;"/>
<path d="M22.4961 63.6992C22.4961 65.9084 20.7052 67.6992 18.4961 67.6992C16.287 67.6992 14.4961 65.9084 14.4961 63.6992C14.4961 61.4901 16.287 59.6992 18.4961 59.6992C20.7052 59.6992 22.4961 61.4901 22.4961 63.6992Z" fill="#706C86" style="fill:#706C86;fill:color(display-p3 0.4392 0.4235 0.5255);fill-opacity:1;"/>
<path d="M39.4961 80.6992C39.4961 82.9084 37.7052 84.6992 35.4961 84.6992C33.287 84.6992 31.4961 82.9084 31.4961 80.6992C31.4961 78.4901 33.287 76.6992 35.4961 76.6992C37.7052 76.6992 39.4961 78.4901 39.4961 80.6992Z" fill="#706C86" style="fill:#706C86;fill:color(display-p3 0.4392 0.4235 0.5255);fill-opacity:1;"/>
<path d="M107.496 43.3008C107.496 45.5099 105.705 47.3008 103.496 47.3008C101.287 47.3008 99.4961 45.5099 99.4961 43.3008C99.4961 41.0916 101.287 39.3008 103.496 39.3008C105.705 39.3008 107.496 41.0916 107.496 43.3008Z" fill="#706C86" style="fill:#706C86;fill:color(display-p3 0.4392 0.4235 0.5255);fill-opacity:1;"/>
<circle cx="62.0977" cy="42.8008" r="32" stroke="#706C86" style="stroke:#706C86;stroke:color(display-p3 0.4392 0.4235 0.5255);stroke-opacity:1;" stroke-width="4"/>
<path d="M44.3081 52.5322L59.5343 27.2817C60.3758 25.8862 60.7966 25.1884 61.3455 24.9541C61.8243 24.7497 62.371 24.7497 62.8498 24.9541C63.3988 25.1884 63.8195 25.8862 64.661 27.2817L79.8872 52.5321C80.7318 53.9327 81.154 54.633 81.0916 55.2077C81.0372 55.709 80.7636 56.1646 80.339 56.461C79.8522 56.8008 79.0094 56.8008 77.3238 56.8008H46.8715C45.1859 56.8008 44.3431 56.8008 43.8563 56.461C43.4317 56.1646 43.1581 55.709 43.1037 55.2077C43.0413 54.633 43.4636 53.9327 44.3081 52.5322Z" fill="#706C86" style="fill:#706C86;fill:color(display-p3 0.4392 0.4235 0.5255);fill-opacity:1;"/>
<path fill-rule="evenodd" clip-rule="evenodd" d="M60.0977 37.0296C60.0977 35.987 60.6838 35.1275 61.6264 34.857C62.5689 34.6341 63.5115 35.0877 63.9155 35.9791C64.0501 36.2974 64.0977 36.6158 64.0977 36.9739C64.0739 37.4713 64.0402 37.9687 64.0066 38.4661C63.9729 38.9635 63.9392 39.4609 63.9155 39.9583C63.8719 40.7263 63.8264 41.4943 63.7808 42.2623C63.7353 43.0303 63.6897 43.7982 63.6462 44.5662C63.5986 45.0676 63.5986 45.5212 63.5986 46.0147C63.559 46.8344 62.9254 47.4631 62.1175 47.4631C61.3095 47.4631 60.6838 46.8742 60.6363 46.0624C60.5689 44.8647 60.5016 43.6789 60.4343 42.4931C60.367 41.3073 60.2996 40.1214 60.2323 38.9237C60.2085 38.6093 60.1868 38.293 60.165 37.9767C60.1432 37.6603 60.1214 37.344 60.0977 37.0296ZM60.1373 50.8112C60.1373 49.7288 61.0403 48.8216 62.1175 48.8216C63.2027 48.8216 64.0977 49.7209 64.0502 50.8589C64.0977 51.8935 63.1552 52.8008 62.1175 52.8008C61.0403 52.8008 60.1373 51.8935 60.1373 50.8112Z" fill="white" style="fill:white;fill-opacity:1;"/>
</svg>
