<svg width="122" height="125" viewBox="0 0 122 125" fill="none" xmlns="http://www.w3.org/2000/svg">
<path fill-rule="evenodd" clip-rule="evenodd" d="M114.03 96.5518H102.97H102.969C101.937 96.5517 101.056 96.5517 100.332 96.6109C99.5703 96.6731 98.8254 96.8096 98.1123 97.173C97.0397 97.7195 96.1677 98.5915 95.6213 99.664C95.2579 100.377 95.1213 101.122 95.0591 101.884C94.9999 102.608 95 103.489 95 104.521V104.521V115.582V115.582C95 116.614 94.9999 117.496 95.0591 118.22C95.1213 118.981 95.2579 119.726 95.6213 120.44C96.1677 121.512 97.0397 122.384 98.1123 122.93C98.8254 123.294 99.5703 123.43 100.332 123.493C101.056 123.552 101.938 123.552 102.97 123.552H114.03C115.062 123.552 115.944 123.552 116.668 123.493C117.43 123.43 118.175 123.294 118.888 122.93C119.96 122.384 120.832 121.512 121.379 120.44C121.742 119.726 121.879 118.981 121.941 118.22C122 117.496 122 116.614 122 115.582V104.521C122 103.489 122 102.608 121.941 101.884C121.879 101.122 121.742 100.377 121.379 99.664C120.832 98.5915 119.96 97.7195 118.888 97.173C118.175 96.8096 117.43 96.6731 116.668 96.6109C115.944 96.5517 115.063 96.5517 114.031 96.5518H114.03Z" fill="#B0B7D3" style="fill:#B0B7D3;fill:color(display-p3 0.6910 0.7161 0.8292);fill-opacity:1;"/>
<path fill-rule="evenodd" clip-rule="evenodd" d="M61.5 95.5518C53.4919 95.5518 47 102.044 47 110.052C47 118.06 53.4919 124.552 61.5 124.552C69.5081 124.552 76 118.06 76 110.052C76 102.044 69.5081 95.5518 61.5 95.5518Z" fill="#B0B7D3" style="fill:#B0B7D3;fill:color(display-p3 0.6910 0.7161 0.8292);fill-opacity:1;"/>
<path fill-rule="evenodd" clip-rule="evenodd" d="M16.9289 98.8961C16.6884 98.5552 16.3048 98.0794 15.6927 97.8061C14.933 97.467 14.067 97.467 13.3073 97.8061C12.6952 98.0794 12.3116 98.5552 12.0711 98.8961C11.8366 99.2285 11.5896 99.657 11.3349 100.099L11.302 100.156L1.04908 117.936L1.01599 117.994C0.760357 118.437 0.512372 118.867 0.341464 119.238C0.167334 119.616 -0.057532 120.195 0.0134423 120.879C0.101587 121.727 0.543942 122.492 1.22135 122.987C1.76449 123.383 2.36502 123.477 2.77514 123.515C3.17819 123.552 3.67103 123.552 4.18226 123.552H24.8177C25.329 123.552 25.8218 123.552 26.2249 123.515C26.635 123.477 27.2355 123.383 27.7786 122.987C28.4561 122.492 28.8984 121.727 28.9866 120.879C29.0575 120.195 28.8327 119.616 28.6585 119.238C28.4876 118.867 28.2397 118.437 27.984 117.994L17.6651 100.099L17.665 100.099C17.4104 99.657 17.1634 99.2284 16.9289 98.8961Z" fill="#B0B7D3" style="fill:#B0B7D3;fill:color(display-p3 0.6910 0.7161 0.8292);fill-opacity:1;"/>
<path d="M14.5 90.5518V87.5518C14.5 80.9243 19.8726 75.5518 26.5 75.5518H96.5C103.127 75.5518 108.5 80.9243 108.5 87.5518V90.5518" stroke="#706C86" style="stroke:#706C86;stroke:color(display-p3 0.4392 0.4235 0.5255);stroke-opacity:1;" stroke-width="4"/>
<path d="M61.5 90.5518V63.5518" stroke="#706C86" style="stroke:#706C86;stroke:color(display-p3 0.4392 0.4235 0.5255);stroke-opacity:1;" stroke-width="4"/>
<path d="M40 2.05176H93V50.3295C93 52.9375 90.8858 55.0518 88.2778 55.0518H40V2.05176Z" stroke="#B0B7D3" style="stroke:#B0B7D3;stroke:color(display-p3 0.6902 0.7176 0.8275);stroke-opacity:1;" stroke-width="3"/>
<path d="M30.5 8.55176H86.5V58.3295C86.5 61.766 83.7142 64.5518 80.2778 64.5518H30.5V8.55176Z" fill="#D6DAEC" style="fill:#D6DAEC;fill:color(display-p3 0.8392 0.8549 0.9255);fill-opacity:1;"/>
<circle cx="6.5" cy="6.5" r="6.5" transform="matrix(-1 0 0 1 55.5 15.5518)" fill="white" style="fill:white;fill-opacity:1;"/>
<path d="M81.7852 52.4307L61.411 32.4355L49.532 44.0991L43.9655 38.9906L35.2139 47.4297" stroke="#706C86" style="stroke:#706C86;stroke:color(display-p3 0.4392 0.4235 0.5255);stroke-opacity:1;" stroke-width="3" stroke-linecap="round" stroke-linejoin="round"/>
</svg>
