<svg width="124" height="124" viewBox="0 0 124 124" fill="none" xmlns="http://www.w3.org/2000/svg">
<circle cx="74.0469" cy="27.8516" r="8.5" fill="#D6DAEC" style="fill:#D6DAEC;fill:color(display-p3 0.8392 0.8549 0.9255);fill-opacity:1;"/>
<circle cx="113.148" cy="44.8516" r="8.5" fill="#D6DAEC" style="fill:#D6DAEC;fill:color(display-p3 0.8392 0.8549 0.9255);fill-opacity:1;"/>
<circle cx="96.1484" cy="78.8516" r="8.5" fill="#B0B7D3" style="fill:#B0B7D3;fill:color(display-p3 0.6902 0.7176 0.8275);fill-opacity:1;"/>
<circle cx="72.3477" cy="95.8516" r="8.5" fill="#D6DAEC" style="fill:#D6DAEC;fill:color(display-p3 0.8392 0.8549 0.9255);fill-opacity:1;"/>
<circle cx="26.4492" cy="78.8516" r="8.5" fill="#D6DAEC" style="fill:#D6DAEC;fill:color(display-p3 0.8392 0.8549 0.9255);fill-opacity:1;"/>
<circle cx="38.3477" cy="48.252" r="8.5" fill="#B0B7D3" style="fill:#B0B7D3;fill:color(display-p3 0.6902 0.7176 0.8275);fill-opacity:1;"/>
<circle cx="65.5469" cy="55.0518" r="8.5" fill="#D6DAEC" style="fill:#D6DAEC;fill:color(display-p3 0.8392 0.8549 0.9255);fill-opacity:1;"/>
<path fill-rule="evenodd" clip-rule="evenodd" d="M94.9474 9.64929C95.6113 8.98539 96.6877 8.98539 97.3516 9.64929L105.852 18.1493C106.515 18.8132 106.515 19.8896 105.852 20.5534C105.188 21.2173 104.111 21.2173 103.447 20.5534L97.8256 14.9316C97.2758 42.1671 87.2958 61.4203 73.8559 74.5427C60.0685 88.0044 42.7339 94.9275 28.4536 97.5239C27.5299 97.6919 26.6449 97.0792 26.4769 96.1555C26.309 95.2317 26.9217 94.3467 27.8454 94.1788C41.6151 91.6752 58.2805 84.9983 71.4806 72.11C84.2503 59.642 93.8656 41.2793 94.4239 14.9812L88.8516 20.5534C88.1877 21.2173 87.1113 21.2173 86.4474 20.5534C85.7835 19.8896 85.7835 18.8132 86.4474 18.1493L94.9474 9.64929Z" fill="#706C86" style="fill:#706C86;fill:color(display-p3 0.4392 0.4235 0.5255);fill-opacity:1;"/>
<path fill-rule="evenodd" clip-rule="evenodd" d="M9.65026 1.14929C10.3142 0.485394 11.3905 0.485394 12.0544 1.14929L20.8521 9.64929C21.5159 10.3132 21.5159 11.3896 20.8521 12.0534C20.1882 12.7173 18.8142 12.7173 18.1503 12.0534L12.5523 6.45553L12.5525 111.449H117.546L111.948 105.851C111.284 105.187 111.284 104.11 111.948 103.446C112.612 102.783 113.688 102.783 114.352 103.446L122.852 111.946C123.516 112.61 123.516 113.687 122.852 114.351L114.352 122.851C113.688 123.514 112.612 123.514 111.948 122.851C111.284 122.187 111.284 121.11 111.948 120.446L117.546 114.849H10.8525C9.91359 114.849 9.15247 114.087 9.15247 113.149L9.15234 6.45553L3.55443 12.0534C2.89053 12.7173 1.81415 12.7173 1.15026 12.0534C0.486371 11.3896 0.486371 10.3132 1.15026 9.64929L9.65026 1.14929Z" fill="#B0B7D3" style="fill:#B0B7D3;fill:color(display-p3 0.6902 0.7176 0.8275);fill-opacity:1;"/>
</svg>
