<svg width="128" height="149" viewBox="0 0 128 149" fill="none" xmlns="http://www.w3.org/2000/svg">
<path d="M68.1172 140.728C68.1172 143.002 66.2737 144.846 63.9995 144.846V148.375C68.2229 148.375 71.6466 144.951 71.6466 140.728H68.1172ZM63.9995 144.846C61.7254 144.846 59.8819 143.002 59.8819 140.728H56.3525C56.3525 144.951 59.7762 148.375 63.9995 148.375V144.846ZM59.8819 140.728C59.8819 138.454 61.7254 136.61 63.9995 136.61V133.081C59.7762 133.081 56.3525 136.505 56.3525 140.728H59.8819ZM63.9995 136.61C66.2737 136.61 68.1172 138.454 68.1172 140.728H71.6466C71.6466 136.505 68.2229 133.081 63.9995 133.081V136.61Z" fill="#706C86" style="fill:#706C86;fill:color(display-p3 0.4392 0.4235 0.5255);fill-opacity:1;"/>
<path d="M29.293 126.611C29.293 128.885 27.4494 130.729 25.1753 130.729V134.258C29.3987 134.258 32.8224 130.834 32.8224 126.611H29.293ZM25.1753 130.729C22.9012 130.729 21.0577 128.885 21.0577 126.611H17.5283C17.5283 130.834 20.952 134.258 25.1753 134.258V130.729ZM21.0577 126.611C21.0577 124.337 22.9012 122.493 25.1753 122.493V118.964C20.952 118.964 17.5283 122.388 17.5283 126.611H21.0577ZM25.1753 122.493C27.4494 122.493 29.293 124.337 29.293 126.611H32.8224C32.8224 122.388 29.3987 118.964 25.1753 118.964V122.493Z" fill="#706C86" style="fill:#706C86;fill:color(display-p3 0.4392 0.4235 0.5255);fill-opacity:1;"/>
<path d="M106.941 126.611C106.941 128.885 105.098 130.729 102.824 130.729V134.258C107.047 134.258 110.471 130.834 110.471 126.611H106.941ZM102.824 130.729C100.55 130.729 98.7061 128.885 98.7061 126.611H95.1767C95.1767 130.834 98.6004 134.258 102.824 134.258V130.729ZM98.7061 126.611C98.7061 124.337 100.55 122.493 102.824 122.493V118.964C98.6004 118.964 95.1767 122.388 95.1767 126.611H98.7061ZM102.824 122.493C105.098 122.493 106.941 124.337 106.941 126.611H110.471C110.471 122.388 107.047 118.964 102.824 118.964V122.493Z" fill="#706C86" style="fill:#706C86;fill:color(display-p3 0.4392 0.4235 0.5255);fill-opacity:1;"/>
<path d="M64 134.493V100.493" stroke="#706C86" style="stroke:#706C86;stroke:color(display-p3 0.4392 0.4235 0.5255);stroke-opacity:1;" stroke-width="3.52941" stroke-linecap="round" stroke-linejoin="round"/>
<path d="M96 126.493H84V100.493" stroke="#706C86" style="stroke:#706C86;stroke:color(display-p3 0.4392 0.4235 0.5255);stroke-opacity:1;" stroke-width="3.52941" stroke-linecap="round" stroke-linejoin="round"/>
<path d="M32 126.493H44V100.493" stroke="#706C86" style="stroke:#706C86;stroke:color(display-p3 0.4392 0.4235 0.5255);stroke-opacity:1;" stroke-width="3.52941" stroke-linecap="round" stroke-linejoin="round"/>
<path d="M87.2261 10.8947C81.5324 5.67715 73.9445 2.49316 65.6131 2.49316C57.2816 2.49316 49.6937 5.67715 44 10.8947M51.0771 17.9791C54.9534 14.5645 60.0414 12.4932 65.6132 12.4932C71.185 12.4932 76.2731 14.5645 80.1493 17.9791M73.0099 25.0434C70.9717 23.4457 68.4036 22.4932 65.6131 22.4932C62.7803 22.4932 60.1767 23.4747 58.124 25.1163" stroke="#706C86" style="stroke:#706C86;stroke:color(display-p3 0.4392 0.4235 0.5255);stroke-opacity:1;" stroke-width="3.52941" stroke-linecap="square" stroke-linejoin="round"/>
<path d="M2 100.493H126" stroke="#706C86" style="stroke:#706C86;stroke:color(display-p3 0.4392 0.4235 0.5255);stroke-opacity:1;" stroke-width="3.52941" stroke-linecap="square" stroke-linejoin="round"/>
<path d="M88.773 32.4932C77.3679 34.7407 54.5576 45.9781 68.2437 63.9581C77.3679 68.4531 97.8972 63.9581 88.773 32.4932Z" fill="#B0B7D3" style="fill:#B0B7D3;fill:color(display-p3 0.6902 0.7176 0.8275);fill-opacity:1;"/>
<path d="M29.7356 48.0668C41.5707 48.4109 66.4082 55.9668 55.7851 76.6149C47.406 82.7495 26.0248 81.6722 29.7356 48.0668Z" fill="#B0B7D3" style="fill:#B0B7D3;fill:color(display-p3 0.6902 0.7176 0.8275);fill-opacity:1;"/>
<path d="M64.0007 110.493C64.0007 92.4932 62.0564 64.4932 82.0564 44.4932" stroke="#706C86" style="stroke:#706C86;stroke:color(display-p3 0.4392 0.4235 0.5255);stroke-opacity:1;" stroke-width="3.52941" stroke-linecap="round" stroke-linejoin="round"/>
<path d="M40 58.4932C52 68.4932 64 80.4932 64 110.493" stroke="#706C86" style="stroke:#706C86;stroke:color(display-p3 0.4392 0.4235 0.5255);stroke-opacity:1;" stroke-width="3.52941" stroke-linecap="round" stroke-linejoin="round"/>
</svg>
