<svg width="117" height="128" viewBox="0 0 117 128" fill="none" xmlns="http://www.w3.org/2000/svg">
<path fill-rule="evenodd" clip-rule="evenodd" d="M35.6459 0.293945C34.3464 0.293945 33.293 1.34739 33.293 2.64689V30.8822C33.293 32.1817 34.3464 33.2351 35.6459 33.2351H38.4017C38.1416 32.4991 38 31.7071 38 30.8821C38 26.9836 41.1603 23.8232 45.0588 23.8232C48.9573 23.8232 52.1176 26.9836 52.1176 30.8821C52.1176 31.7071 51.9761 32.4991 51.7159 33.2351H66.2341V2.64689C66.2341 1.34739 65.1807 0.293945 63.8812 0.293945H35.6459Z" fill="#D6DAEC" style="fill:#D6DAEC;fill:color(display-p3 0.8392 0.8549 0.9255);fill-opacity:1;"/>
<path fill-rule="evenodd" clip-rule="evenodd" d="M75.0187 4.68399H66.2344V33.233H68.9865C68.7271 32.4979 68.5859 31.707 68.5859 30.883C68.5859 26.9846 71.7463 23.8242 75.6448 23.8242C79.5432 23.8242 82.7036 26.9846 82.7036 30.883C82.7036 31.707 82.5624 32.4979 82.303 33.233H83.071C83.803 33.233 84.535 32.501 84.535 31.769V22.2526C84.535 19.6981 84.2548 18.7836 83.071 16.4992L82.2232 14.8631L78.8772 7.21183L78.7321 6.88007C77.7634 4.665 77.699 4.66549 75.6351 4.68103C75.447 4.68245 75.2422 4.68399 75.0187 4.68399Z" fill="#B0B7D3" style="fill:#B0B7D3;fill:color(display-p3 0.6902 0.7176 0.8275);fill-opacity:1;"/>
<path d="M4.16624 74.2936C4.22694 73.6927 4.73279 73.2354 5.33675 73.2354H13.0134C13.6174 73.2354 14.1232 73.6927 14.1839 74.2936L17.8678 110.764C17.9378 111.457 17.3938 112.059 16.6973 112.059H1.65286C0.956361 112.059 0.412344 111.457 0.482341 110.764L4.16624 74.2936Z" fill="#B0B7D3" style="fill:#B0B7D3;fill:color(display-p3 0.6902 0.7176 0.8275);fill-opacity:1;"/>
<path fill-rule="evenodd" clip-rule="evenodd" d="M11.0077 88.2354C10.2524 88.5749 9.76562 89.3323 9.76562 90.1682V109.944C9.76562 111.112 10.702 112.059 11.8571 112.059C23.0118 112.059 34.1665 112.059 45.3212 112.059C46.4763 112.059 47.4127 111.112 47.4127 109.944V83.5881C47.4127 82.0576 45.8548 81.0338 44.4717 81.6554L28.5892 88.7948V83.5881C28.5892 82.0576 27.0313 81.0338 25.6482 81.6554L11.0077 88.2354Z" fill="#D6DAEC" style="fill:#D6DAEC;fill:color(display-p3 0.8392 0.8549 0.9255);fill-opacity:1;"/>
<path d="M27.228 23.707C13.7166 33.1088 4.54376 48.3111 3.31641 65.707M91.1237 23.707C104.635 33.1088 113.808 48.3111 115.035 65.707M37.1758 121.219C43.9295 124.107 51.366 125.706 59.1758 125.706C66.9857 125.706 74.4222 124.107 81.1758 121.219" stroke="#706C86" style="stroke:#706C86;stroke:color(display-p3 0.4392 0.4235 0.5255);stroke-opacity:1;" stroke-width="3.52941"/>
<path d="M45.0586 10.8828H53.2939M45.0586 15.5887H53.2939" stroke="#706C86" style="stroke:#706C86;stroke:color(display-p3 0.4392 0.4235 0.5255);stroke-opacity:1;" stroke-width="2.35294" stroke-linecap="square" stroke-linejoin="round"/>
<circle cx="75.6473" cy="30.8826" r="4.70588" fill="#B0B7D3" style="fill:#B0B7D3;fill:color(display-p3 0.6902 0.7176 0.8275);fill-opacity:1;"/>
<circle cx="45.0574" cy="30.8826" r="4.70588" fill="#B0B7D3" style="fill:#B0B7D3;fill:color(display-p3 0.6902 0.7176 0.8275);fill-opacity:1;"/>
<path d="M106.176 79.7061C106.176 85.2289 101.699 89.7061 96.1758 89.7061C90.6529 89.7061 86.1758 85.2289 86.1758 79.7061C86.1758 74.1832 90.6529 69.7061 96.1758 69.7061C101.699 69.7061 106.176 74.1832 106.176 79.7061Z" fill="#B0B7D3" style="fill:#B0B7D3;fill:color(display-p3 0.6902 0.7176 0.8275);fill-opacity:1;"/>
<path d="M96.236 92.0586C85.5152 92.0586 76.8242 99.064 76.8242 107.706C76.8242 107.706 77.9661 114.412 96.236 114.412C114.506 114.412 115.648 107.706 115.648 107.706C115.648 99.064 106.957 92.0586 96.236 92.0586Z" fill="#B0B7D3" style="fill:#B0B7D3;fill:color(display-p3 0.6902 0.7176 0.8275);fill-opacity:1;"/>
<rect x="38" y="93.2354" width="4.70588" height="5.88235" fill="#B0B7D3" style="fill:#B0B7D3;fill:color(display-p3 0.6902 0.7176 0.8275);fill-opacity:1;"/>
<rect x="29.7656" y="93.2354" width="4.70588" height="5.88235" fill="#B0B7D3" style="fill:#B0B7D3;fill:color(display-p3 0.6902 0.7176 0.8275);fill-opacity:1;"/>
<rect x="21.5273" y="93.2354" width="4.70588" height="5.88235" fill="#B0B7D3" style="fill:#B0B7D3;fill:color(display-p3 0.6902 0.7176 0.8275);fill-opacity:1;"/>
</svg>
