<svg width="120" height="120" viewBox="0 0 120 120" fill="none" xmlns="http://www.w3.org/2000/svg">
<path fill-rule="evenodd" clip-rule="evenodd" d="M8.25781 60C20.9578 39.7596 35.8122 25 60.5009 25C85.1896 25 100.044 39.7596 112.744 60C100.044 80.2404 85.1896 95 60.5009 95C35.8122 95 20.9578 80.2404 8.25781 60Z" fill="#D6DAEC" style="fill:#D6DAEC;fill:color(display-p3 0.8392 0.8549 0.9255);fill-opacity:1;"/>
<path fill-rule="evenodd" clip-rule="evenodd" d="M0 18.8718C0 8.44919 8.44919 0 18.8718 0H32V4.92308H18.8718C11.1681 4.92308 4.92308 11.1681 4.92308 18.8718V32H0V18.8718Z" fill="#B0B7D3" style="fill:#B0B7D3;fill:color(display-p3 0.6902 0.7176 0.8275);fill-opacity:1;"/>
<path fill-rule="evenodd" clip-rule="evenodd" d="M120 18.8718C120 8.44919 111.551 0 101.128 0H88V4.92308H101.128C108.832 4.92308 115.077 11.1681 115.077 18.8718V32H120V18.8718Z" fill="#B0B7D3" style="fill:#B0B7D3;fill:color(display-p3 0.6902 0.7176 0.8275);fill-opacity:1;"/>
<path fill-rule="evenodd" clip-rule="evenodd" d="M0 101.128C0 111.551 8.44919 120 18.8718 120H32V115.077H18.8718C11.1681 115.077 4.92308 108.832 4.92308 101.128V88H0V101.128Z" fill="#B0B7D3" style="fill:#B0B7D3;fill:color(display-p3 0.6902 0.7176 0.8275);fill-opacity:1;"/>
<path fill-rule="evenodd" clip-rule="evenodd" d="M120 101.128C120 111.551 111.551 120 101.128 120H88V115.077H101.128C108.832 115.077 115.077 108.832 115.077 101.128V88H120V101.128Z" fill="#B0B7D3" style="fill:#B0B7D3;fill:color(display-p3 0.6902 0.7176 0.8275);fill-opacity:1;"/>
<path fill-rule="evenodd" clip-rule="evenodd" d="M35.0119 59.2312C35.1568 54.508 36.6379 49.9176 39.2896 45.9958C42.0591 41.8997 45.981 38.7169 50.5594 36.8498C50.5884 36.838 50.6175 36.8271 50.6467 36.817C52.9111 35.9035 55.3022 35.3246 57.7441 35.1034C57.7773 35.0985 57.8108 35.0946 57.8446 35.0917C58.4704 35.0375 59.098 35.007 59.7262 35.0001C59.7602 34.9997 59.794 35.0004 59.8275 35.002C59.885 35.0016 59.9425 35.0014 60 35.0014C60.9204 35.0014 61.6666 35.7476 61.6666 36.668C61.6666 37.5885 60.9204 38.3347 60 38.3347C55.7147 38.3347 51.5257 39.6054 47.9626 41.9861C44.3996 44.3667 41.6225 47.7505 39.9826 51.7095C38.9744 54.1433 38.4239 56.7274 38.3436 59.3337C38.338 59.5154 38.3347 59.6974 38.3337 59.8796C38.3103 64.1647 39.5581 68.3605 41.9193 71.9364C44.2806 75.5123 47.6492 78.3078 51.5992 79.9693C55.5493 81.6307 59.9033 82.0836 64.1107 81.2706C68.3181 80.4576 72.19 78.4153 75.2366 75.4018C78.2833 72.3884 80.3679 68.5392 81.2269 64.3411C81.4685 63.1603 81.6101 61.9669 81.6528 60.7731C81.6552 60.7067 81.6572 60.6404 81.659 60.5741C81.6641 60.3832 81.6666 60.192 81.6666 60.0007C81.6666 59.9953 81.6666 59.9898 81.6667 59.9844C81.6652 57.6349 81.2815 55.2942 80.5243 53.0559C80.5181 53.0394 80.5121 53.0228 80.5064 53.006C79.179 49.1141 76.7713 45.6803 73.5649 43.1058C72.8471 42.5295 72.7324 41.4805 73.3087 40.7628C73.885 40.0451 74.9341 39.9304 75.6518 40.5067C78.9544 43.1584 81.5226 46.6001 83.1253 50.5026C83.1335 50.5208 83.1414 50.5391 83.149 50.5577C84.4509 53.75 85.0723 57.1615 84.9933 60.5766C84.9909 60.6818 84.9878 60.7871 84.984 60.8923C84.8187 65.5244 83.3683 70.0259 80.7867 73.8896C78.0396 78.0007 74.1352 81.2049 69.567 83.097C64.9989 84.9892 59.9722 85.4842 55.1227 84.5196C50.2732 83.555 45.8186 81.1741 42.3223 77.6779C38.826 74.1817 36.445 69.7272 35.4804 64.8778C35.1088 63.0098 34.9538 61.1155 35.0119 59.2312ZM67.4096 36.1245C66.5305 35.8516 65.5967 36.3431 65.3239 37.2222C65.051 38.1013 65.5425 39.0351 66.4217 39.3079C66.9416 39.4693 67.4553 39.6502 67.9616 39.8502C68.8177 40.1885 69.7859 39.7687 70.1241 38.9126C70.4624 38.0566 70.0426 37.0884 69.1865 36.7502C68.6023 36.5194 68.0096 36.3106 67.4096 36.1245Z" fill="#706C86" style="fill:#706C86;fill:color(display-p3 0.4392 0.4235 0.5255);fill-opacity:1;"/>
<path fill-rule="evenodd" clip-rule="evenodd" d="M50.7857 60C55.8746 60 60 55.8746 60 50.7857C60 49.8175 59.8507 48.8841 59.5738 48.0074C59.7152 48.0025 59.8573 48 60 48C66.6274 48 72 53.3726 72 60C72 66.6274 66.6274 72 60 72C53.3726 72 48 66.6274 48 60C48 59.8573 48.0025 59.7152 48.0074 59.5738C48.8841 59.8507 49.8175 60 50.7857 60Z" fill="#706C86" style="fill:#706C86;fill:color(display-p3 0.4392 0.4235 0.5255);fill-opacity:1;"/>
<path fill-rule="evenodd" clip-rule="evenodd" d="M50.7857 60C55.8746 60 60 55.8746 60 50.7857C60 49.8175 59.8507 48.8841 59.5738 48.0074C59.7152 48.0025 59.8573 48 60 48C66.6274 48 72 53.3726 72 60C72 66.6274 66.6274 72 60 72C53.3726 72 48 66.6274 48 60C48 59.8573 48.0025 59.7152 48.0074 59.5738C48.8841 59.8507 49.8175 60 50.7857 60Z" fill="#706C86" style="fill:#706C86;fill:color(display-p3 0.4392 0.4235 0.5255);fill-opacity:1;"/>
</svg>
