<svg width="138" height="144" viewBox="0 0 138 144" fill="none" xmlns="http://www.w3.org/2000/svg">
<path d="M105 72C105 110.66 88.8825 142 69.0003 142C49.118 142 33.0003 110.66 33.0003 72C33.0003 33.3401 49.118 2 69.0003 2C88.8825 2 105 33.3401 105 72Z" stroke="#B0B7D3" style="stroke:#B0B7D3;stroke:color(display-p3 0.6902 0.7176 0.8275);stroke-opacity:1;" stroke-width="3.52941"/>
<path d="M87.0003 103.178C53.5198 122.508 18.3197 124.22 8.37854 107.001C-1.56258 89.7826 17.5198 60.1542 51.0003 40.8242C84.4808 21.4942 119.681 19.7826 129.622 37.0011C139.563 54.2197 120.481 83.8481 87.0003 103.178Z" stroke="#B0B7D3" style="stroke:#B0B7D3;stroke:color(display-p3 0.6902 0.7176 0.8275);stroke-opacity:1;" stroke-width="3.52941"/>
<path d="M51.0003 103.178C17.5198 83.8481 -1.56258 54.2197 8.37855 37.0011C18.3197 19.7826 53.5198 21.4942 87.0003 40.8242C120.481 60.1542 139.563 89.7826 129.622 107.001C119.681 124.22 84.4808 122.508 51.0003 103.178Z" stroke="#B0B7D3" style="stroke:#B0B7D3;stroke:color(display-p3 0.6902 0.7176 0.8275);stroke-opacity:1;" stroke-width="3.52941"/>
<circle cx="129.588" cy="37.2938" r="6.47059" fill="#706C86" stroke="#706C86" style="fill:#706C86;fill:color(display-p3 0.4392 0.4235 0.5255);fill-opacity:1;stroke:#706C86;stroke:color(display-p3 0.4392 0.4235 0.5255);stroke-opacity:1;" stroke-width="2.35294"/>
<circle cx="8.41199" cy="107.883" r="6.47059" fill="#706C86" stroke="#706C86" style="fill:#706C86;fill:color(display-p3 0.4392 0.4235 0.5255);fill-opacity:1;stroke:#706C86;stroke:color(display-p3 0.4392 0.4235 0.5255);stroke-opacity:1;" stroke-width="2.35294"/>
<circle cx="129.588" cy="107.883" r="6.47059" fill="#706C86" stroke="#706C86" style="fill:#706C86;fill:color(display-p3 0.4392 0.4235 0.5255);fill-opacity:1;stroke:#706C86;stroke:color(display-p3 0.4392 0.4235 0.5255);stroke-opacity:1;" stroke-width="2.35294"/>
<circle cx="8.41199" cy="37.2938" r="6.47059" fill="#706C86" stroke="#706C86" style="fill:#706C86;fill:color(display-p3 0.4392 0.4235 0.5255);fill-opacity:1;stroke:#706C86;stroke:color(display-p3 0.4392 0.4235 0.5255);stroke-opacity:1;" stroke-width="2.35294"/>
<path fill-rule="evenodd" clip-rule="evenodd" d="M45.7575 88.1881C45.9499 88.3764 46.1905 88.4705 46.4792 88.4705H51.4833C51.9645 88.4705 52.3174 88.3607 52.5419 88.1411C52.7665 87.9215 52.9108 87.7175 52.975 87.5293L55.044 82.2587H68.6129L70.6819 87.5293C70.7461 87.7175 70.8904 87.9215 71.115 88.1411C71.3395 88.3607 71.6924 88.4705 72.1735 88.4705H77.1777C77.4664 88.4705 77.707 88.3764 77.8994 88.1881C78.0919 87.9685 78.1881 87.7332 78.1881 87.4822C78.1881 87.3254 78.1721 87.1842 78.14 87.0587L66.6882 56.7999C66.592 56.4548 66.3995 56.1567 66.1108 55.9058C65.8221 55.6548 65.4212 55.5293 64.9079 55.5293H58.749C58.2357 55.5293 57.8347 55.6548 57.546 55.9058C57.2573 56.1567 57.0649 56.4548 56.9686 56.7999L45.5169 87.0587C45.4848 87.1842 45.4688 87.3254 45.4688 87.4822C45.4688 87.7332 45.565 87.9685 45.7575 88.1881ZM66.7845 76.1881H56.8243L61.8284 62.6352L66.7845 76.1881ZM82.6684 88.1411C82.893 88.3607 83.1817 88.4705 83.5345 88.4705H88.9717C89.3246 88.4705 89.6133 88.3607 89.8378 88.1411C90.0624 87.9215 90.1746 87.6391 90.1746 87.294V56.7058C90.1746 56.3607 90.0624 56.0783 89.8378 55.8587C89.6133 55.6391 89.3246 55.5293 88.9717 55.5293H83.5345C83.1817 55.5293 82.893 55.6391 82.6684 55.8587C82.4439 56.0783 82.3316 56.3607 82.3316 56.7058V87.294C82.3316 87.6391 82.4439 87.9215 82.6684 88.1411Z" fill="#706C86" style="fill:#706C86;fill:color(display-p3 0.4392 0.4235 0.5255);fill-opacity:1;"/>
</svg>
