<svg width="132" height="148" viewBox="0 0 132 148" fill="none" xmlns="http://www.w3.org/2000/svg">
<path d="M89.2261 10.3429C83.5324 5.12539 75.9445 1.94141 67.6131 1.94141C59.2816 1.94141 51.6937 5.12539 46 10.3429M53.0771 17.4273C56.9534 14.0127 62.0414 11.9414 67.6132 11.9414C73.185 11.9414 78.2731 14.0127 82.1493 17.4273M75.0099 24.4916C72.9717 22.8939 70.4036 21.9414 67.6131 21.9414C64.7803 21.9414 62.1767 22.923 60.124 24.5646" stroke="#706C86" style="stroke:#706C86;stroke:color(display-p3 0.4392 0.4235 0.5255);stroke-opacity:1;" stroke-width="2.35294" stroke-linecap="round" stroke-linejoin="round"/>
<circle cx="105.413" cy="81.9417" r="8.82353" stroke="#706C86" style="stroke:#706C86;stroke:color(display-p3 0.4392 0.4235 0.5255);stroke-opacity:1;" stroke-width="3.52941"/>
<circle cx="31.2923" cy="81.9417" r="8.82353" stroke="#706C86" style="stroke:#706C86;stroke:color(display-p3 0.4392 0.4235 0.5255);stroke-opacity:1;" stroke-width="3.52941"/>
<path fill-rule="evenodd" clip-rule="evenodd" d="M36.9786 33.1182C35.1023 33.1182 33.3277 33.9645 32.1556 35.4183L21.8944 48.1458C20.3316 50.0843 17.9654 51.2127 15.4637 51.2127H6.29366C2.88249 51.2127 0.117188 53.9567 0.117188 57.3415V79.9305C0.117188 83.3154 2.88249 86.0593 6.29366 86.0593H14.6353C15.2219 86.0593 15.7806 85.8111 16.1712 85.3769C16.5618 84.9427 16.7473 84.3638 16.681 83.7855C16.6195 83.249 16.5878 82.7029 16.5878 82.1486C16.5878 74.2506 23.0401 67.848 30.9995 67.848C38.9589 67.848 45.4113 74.2506 45.4113 82.1486C45.4113 82.7029 45.3796 83.249 45.3181 83.7855C45.2518 84.3638 45.4372 84.9427 45.8279 85.3769C46.2185 85.8111 46.7772 86.0593 47.3637 86.0593H88.753C89.3395 86.0593 89.8983 85.8111 90.2889 85.3769C90.6795 84.9427 90.8649 84.3638 90.7986 83.7855C90.7371 83.249 90.7054 82.7029 90.7054 82.1486C90.7054 74.2506 97.1578 67.848 105.117 67.848C113.077 67.848 119.529 74.2506 119.529 82.1486C119.529 82.7029 119.497 83.249 119.436 83.7855C119.369 84.3638 119.555 84.9427 119.946 85.3769C120.336 85.8111 120.895 86.0593 121.481 86.0593H125.705C129.117 86.0593 131.882 83.3154 131.882 79.9305V62.1291C131.882 59.1438 129.714 56.5928 126.749 56.0884L98.7426 51.3243L75.6111 34.3221C74.5473 33.5402 73.2585 33.1182 71.9347 33.1182H36.9786Z" fill="#B0B7D3" style="fill:#B0B7D3;fill:color(display-p3 0.6902 0.7176 0.8275);fill-opacity:1;"/>
<path d="M89.2261 10.3429C83.5324 5.12539 75.9445 1.94141 67.6131 1.94141C59.2816 1.94141 51.6937 5.12539 46 10.3429M53.0771 17.4273C56.9534 14.0127 62.0414 11.9414 67.6132 11.9414C73.185 11.9414 78.2731 14.0127 82.1493 17.4273M75.0099 24.4916C72.9717 22.8939 70.4036 21.9414 67.6131 21.9414C64.7803 21.9414 62.1767 22.923 60.124 24.5646" stroke="#706C86" style="stroke:#706C86;stroke:color(display-p3 0.4392 0.4235 0.5255);stroke-opacity:1;" stroke-width="3.52941" stroke-linecap="square" stroke-linejoin="round"/>
<path d="M70.1172 140.176C70.1172 142.45 68.2737 144.294 65.9995 144.294V147.823C70.2229 147.823 73.6466 144.4 73.6466 140.176H70.1172ZM65.9995 144.294C63.7254 144.294 61.8819 142.45 61.8819 140.176H58.3525C58.3525 144.4 61.7762 147.823 65.9995 147.823V144.294ZM61.8819 140.176C61.8819 137.902 63.7254 136.059 65.9995 136.059V132.529C61.7762 132.529 58.3525 135.953 58.3525 140.176H61.8819ZM65.9995 136.059C68.2737 136.059 70.1172 137.902 70.1172 140.176H73.6466C73.6466 135.953 70.2229 132.529 65.9995 132.529V136.059Z" fill="#706C86" style="fill:#706C86;fill:color(display-p3 0.4392 0.4235 0.5255);fill-opacity:1;"/>
<path d="M31.293 126.059C31.293 128.333 29.4494 130.177 27.1753 130.177V133.706C31.3987 133.706 34.8224 130.282 34.8224 126.059H31.293ZM27.1753 130.177C24.9012 130.177 23.0577 128.333 23.0577 126.059H19.5283C19.5283 130.282 22.952 133.706 27.1753 133.706V130.177ZM23.0577 126.059C23.0577 123.785 24.9012 121.941 27.1753 121.941V118.412C22.952 118.412 19.5283 121.836 19.5283 126.059H23.0577ZM27.1753 121.941C29.4494 121.941 31.293 123.785 31.293 126.059H34.8224C34.8224 121.836 31.3987 118.412 27.1753 118.412V121.941Z" fill="#706C86" style="fill:#706C86;fill:color(display-p3 0.4392 0.4235 0.5255);fill-opacity:1;"/>
<path d="M108.941 126.059C108.941 128.333 107.098 130.177 104.824 130.177V133.706C109.047 133.706 112.471 130.282 112.471 126.059H108.941ZM104.824 130.177C102.55 130.177 100.706 128.333 100.706 126.059H97.1767C97.1767 130.282 100.6 133.706 104.824 133.706V130.177ZM100.706 126.059C100.706 123.785 102.55 121.941 104.824 121.941V118.412C100.6 118.412 97.1767 121.836 97.1767 126.059H100.706ZM104.824 121.941C107.098 121.941 108.941 123.785 108.941 126.059H112.471C112.471 121.836 109.047 118.412 104.824 118.412V121.941Z" fill="#706C86" style="fill:#706C86;fill:color(display-p3 0.4392 0.4235 0.5255);fill-opacity:1;"/>
<path d="M66 133.942V99.9424" stroke="#706C86" style="stroke:#706C86;stroke:color(display-p3 0.4392 0.4235 0.5255);stroke-opacity:1;" stroke-width="3.52941" stroke-linecap="round" stroke-linejoin="round"/>
<path d="M98 125.942H86V99.9424" stroke="#706C86" style="stroke:#706C86;stroke:color(display-p3 0.4392 0.4235 0.5255);stroke-opacity:1;" stroke-width="3.52941" stroke-linecap="round" stroke-linejoin="round"/>
<path d="M34 125.942H46V99.9424" stroke="#706C86" style="stroke:#706C86;stroke:color(display-p3 0.4392 0.4235 0.5255);stroke-opacity:1;" stroke-width="3.52941" stroke-linecap="round" stroke-linejoin="round"/>
<path d="M4 99.9424H128" stroke="#706C86" style="stroke:#706C86;stroke:color(display-p3 0.4392 0.4235 0.5255);stroke-opacity:1;" stroke-width="3.52941" stroke-linecap="square" stroke-linejoin="round"/>
</svg>
