<svg width="116" height="132" viewBox="0 0 116 132" fill="none" xmlns="http://www.w3.org/2000/svg">
<path d="M0 31.8828H116V115.883C116 124.719 108.837 131.883 100 131.883H13C5.8203 131.883 0 126.063 0 118.883V31.8828Z" fill="#D6DAEC" style="fill:#D6DAEC;fill:color(display-p3 0.8392 0.8549 0.9255);fill-opacity:1;"/>
<path fill-rule="evenodd" clip-rule="evenodd" d="M52.0432 0.117188C37.7894 0.117188 26.2344 11.6722 26.2344 25.926V31.8819H38.1461V25.926C38.1461 18.2509 44.3681 12.029 52.0432 12.029H63.955C71.6301 12.029 77.852 18.2509 77.852 25.926V31.8819H89.7638V25.926C89.7638 11.6722 78.2088 0.117188 63.955 0.117188H52.0432Z" fill="#706C86" style="fill:#706C86;fill:color(display-p3 0.4392 0.4235 0.5255);fill-opacity:1;"/>
<path d="M48.3364 55.4121V72.8071H30.9414V92.1348H48.3364V109.53H67.6641V92.1348H85.0591V72.8071H67.6641V55.4121H48.3364Z" fill="#706C86" style="fill:#706C86;fill:color(display-p3 0.4392 0.4235 0.5255);fill-opacity:1;"/>
</svg>
