<svg width="120" height="120" viewBox="0 0 120 120" fill="none" xmlns="http://www.w3.org/2000/svg">
<path fill-rule="evenodd" clip-rule="evenodd" d="M0 18.8718C0 8.44919 8.44919 0 18.8718 0H32V4.92308H18.8718C11.1681 4.92308 4.92308 11.1681 4.92308 18.8718V32H0V18.8718Z" fill="#B0B7D3" style="fill:#B0B7D3;fill:color(display-p3 0.6902 0.7176 0.8275);fill-opacity:1;"/>
<path fill-rule="evenodd" clip-rule="evenodd" d="M120 18.8718C120 8.44919 111.551 0 101.128 0H88V4.92308H101.128C108.832 4.92308 115.077 11.1681 115.077 18.8718V32H120V18.8718Z" fill="#B0B7D3" style="fill:#B0B7D3;fill:color(display-p3 0.6902 0.7176 0.8275);fill-opacity:1;"/>
<path fill-rule="evenodd" clip-rule="evenodd" d="M0 101.128C0 111.551 8.44919 120 18.8718 120H32V115.077H18.8718C11.1681 115.077 4.92308 108.832 4.92308 101.128V88H0V101.128Z" fill="#B0B7D3" style="fill:#B0B7D3;fill:color(display-p3 0.6902 0.7176 0.8275);fill-opacity:1;"/>
<path fill-rule="evenodd" clip-rule="evenodd" d="M120 101.128C120 111.551 111.551 120 101.128 120H88V115.077H101.128C108.832 115.077 115.077 108.832 115.077 101.128V88H120V101.128Z" fill="#B0B7D3" style="fill:#B0B7D3;fill:color(display-p3 0.6902 0.7176 0.8275);fill-opacity:1;"/>
<path d="M26 25.7656H92V84.4323C92 88.4824 88.7168 91.7656 84.6667 91.7656H26V25.7656Z" fill="#D6DAEC" style="fill:#D6DAEC;fill:color(display-p3 0.8392 0.8549 0.9255);fill-opacity:1;"/>
<path d="M88.4805 66.7732L67.911 45.4648L51.2507 62.7647L45.6224 56.8574L33.251 68.25" stroke="#706C86" style="stroke:#706C86;stroke:color(display-p3 0.4392 0.4235 0.5255);stroke-opacity:1;" stroke-width="4" stroke-linecap="round" stroke-linejoin="round"/>
<circle cx="6.28125" cy="6.28125" r="6.28125" transform="matrix(-1 0 0 1 52.0273 33.9023)" fill="white" style="fill:white;fill-opacity:1;"/>
<path d="M55.5 64H98.5V94C98.5 96.2091 96.7091 98 94.5 98H55.5V64Z" fill="#706C86" style="fill:#706C86;fill:color(display-p3 0.4392 0.4235 0.5255);fill-opacity:1;"/>
<path fill-rule="evenodd" clip-rule="evenodd" d="M63.853 88.5327C63.9478 88.6352 64.0696 88.6865 64.2185 88.6865H66.4313C66.5802 88.6865 66.702 88.6352 66.7968 88.5327C66.8915 88.4302 66.9389 88.2985 66.9389 88.1374V82.471H72.4405V88.1374C72.4405 88.2985 72.4879 88.4302 72.5827 88.5327C72.6774 88.6352 72.7992 88.6865 72.9481 88.6865H75.1609C75.3098 88.6865 75.4316 88.6352 75.5264 88.5327C75.6211 88.4302 75.6685 88.2985 75.6685 88.1374V73.8616C75.6685 73.7005 75.6211 73.5687 75.5264 73.4662C75.4316 73.3637 75.3098 73.3125 75.1609 73.3125H72.9481C72.7992 73.3125 72.6774 73.3637 72.5827 73.4662C72.4879 73.5687 72.4405 73.7005 72.4405 73.8616V79.3523H66.9389V73.8616C66.9389 73.7005 66.8915 73.5687 66.7968 73.4662C66.702 73.3637 66.5802 73.3125 66.4313 73.3125H64.2185C64.0696 73.3125 63.9478 73.3637 63.853 73.4662C63.7583 73.5687 63.7109 73.7005 63.7109 73.8616V88.1374C63.7109 88.2985 63.7583 88.4302 63.853 88.5327ZM79.2293 88.5327C79.3248 88.6352 79.4477 88.6865 79.5978 88.6865H84.8395C86.1908 88.6865 87.317 88.4742 88.2179 88.0496C89.1188 87.6103 89.8013 86.9441 90.2654 86.0509C90.7295 85.1578 90.982 84.0304 91.023 82.6687C91.0367 82.0391 91.0435 81.4827 91.0435 80.9995C91.0435 80.5163 91.0367 79.9526 91.023 79.3084C90.9957 78.0052 90.7363 76.9144 90.2449 76.0359C89.7672 75.1427 89.071 74.4692 88.1565 74.0153C87.2419 73.5468 86.1021 73.3125 84.7371 73.3125H79.5978C79.4477 73.3125 79.3248 73.3637 79.2293 73.4662C79.1337 73.5687 79.0859 73.7005 79.0859 73.8616V88.1374C79.0859 88.2985 79.1337 88.4302 79.2293 88.5327ZM84.7371 85.8533H82.3415V76.1457H84.6347C85.6721 76.1457 86.4365 76.4093 86.928 76.9364C87.433 77.4488 87.6992 78.2541 87.7265 79.3523C87.7401 79.7622 87.747 80.1356 87.747 80.4724C87.7606 80.8091 87.7606 81.1459 87.747 81.4827C87.747 81.8194 87.7401 82.2001 87.7265 82.6247C87.7128 83.3861 87.5968 84.0084 87.3784 84.4916C87.1737 84.9601 86.8529 85.3042 86.4161 85.5238C85.9793 85.7435 85.4196 85.8533 84.7371 85.8533Z" fill="white" style="fill:white;fill-opacity:1;"/>
<rect x="66.75" y="62" width="21.25" height="2" fill="#D6DAEC" style="fill:#D6DAEC;fill:color(display-p3 0.8392 0.8549 0.9255);fill-opacity:1;"/>
</svg>
