<svg width="124" height="124" viewBox="0 0 124 124" fill="none" xmlns="http://www.w3.org/2000/svg">
<rect x="32.0977" y="84.8818" width="14" height="38" fill="#D6DAEC" style="fill:#D6DAEC;fill:color(display-p3 0.8392 0.8549 0.9255);fill-opacity:1;"/>
<rect x="10.0977" y="98.8818" width="14" height="24" fill="#D6DAEC" style="fill:#D6DAEC;fill:color(display-p3 0.8392 0.8549 0.9255);fill-opacity:1;"/>
<rect x="54.0977" y="55.8818" width="14" height="67" fill="#B0B7D3" style="fill:#B0B7D3;fill:color(display-p3 0.6902 0.7176 0.8275);fill-opacity:1;"/>
<path d="M112.098 119.882V43.8818H98.0977V119.882" stroke="#706C86" style="stroke:#706C86;stroke:color(display-p3 0.4392 0.4235 0.5255);stroke-opacity:1;" stroke-width="3" stroke-linecap="round" stroke-linejoin="round" stroke-dasharray="5 5"/>
<rect x="76.0977" y="80.8818" width="14" height="42" fill="#D6DAEC" style="fill:#D6DAEC;fill:color(display-p3 0.8392 0.8549 0.9255);fill-opacity:1;"/>
<path fill-rule="evenodd" clip-rule="evenodd" d="M2.39922 12.5127C3.3381 12.5127 4.09922 13.2644 4.09922 14.1917V119.884H121.399C122.338 119.884 123.099 120.635 123.099 121.563C123.099 122.49 122.338 123.242 121.399 123.242H2.39922C1.46033 123.242 0.699219 122.49 0.699219 121.563V14.1917C0.699219 13.2644 1.46033 12.5127 2.39922 12.5127Z" fill="#B0B7D3" style="fill:#B0B7D3;fill:color(display-p3 0.6902 0.7176 0.8275);fill-opacity:1;"/>
<path d="M104.598 37.6971C114.926 37.6971 123.298 29.4281 123.298 19.2279C123.298 9.0277 114.926 0.758789 104.598 0.758789C94.2707 0.758789 85.8984 9.0277 85.8984 19.2279C85.8984 29.4281 94.2707 37.6971 104.598 37.6971Z" fill="#706C86" style="fill:#706C86;fill:color(display-p3 0.4392 0.4235 0.5255);fill-opacity:1;"/>
<path d="M103.048 23.6543C102.891 23.6543 102.754 23.5976 102.636 23.484C102.518 23.3705 102.459 23.2381 102.459 23.0868C102.459 22.9543 102.459 22.8219 102.459 22.6895C102.459 22.557 102.459 22.4246 102.459 22.2922C102.557 21.5922 102.773 20.9679 103.107 20.4193C103.461 19.8517 103.863 19.3314 104.315 18.8585C104.787 18.3855 105.248 17.9504 105.7 17.5531C106.152 17.1369 106.535 16.7207 106.849 16.3045C107.163 15.8883 107.33 15.4721 107.35 15.0559C107.409 14.564 107.311 14.1573 107.055 13.8356C106.82 13.4951 106.486 13.2397 106.053 13.0694C105.641 12.8803 105.199 12.7857 104.728 12.7857C103.863 12.7857 103.166 12.9938 102.636 13.41C102.125 13.8073 101.771 14.4221 101.575 15.2545C101.496 15.4626 101.388 15.6234 101.251 15.7369C101.113 15.8505 100.927 15.9072 100.691 15.9072H97.6269C97.4501 15.9072 97.293 15.841 97.1555 15.7086C97.018 15.5761 96.9492 15.4059 96.9492 15.1978C96.9689 14.441 97.1555 13.7032 97.509 12.9843C97.8626 12.2654 98.3831 11.6222 99.0706 11.0546C99.7581 10.4682 100.593 10.0047 101.575 9.66412C102.557 9.32359 103.696 9.15332 104.993 9.15332C106.407 9.15332 107.576 9.32359 108.499 9.66412C109.442 10.0047 110.188 10.4492 110.738 10.9979C111.308 11.5276 111.71 12.1046 111.946 12.7289C112.182 13.3343 112.28 13.9113 112.241 14.4599C112.221 15.1599 112.064 15.7937 111.769 16.3612C111.494 16.9099 111.151 17.4207 110.738 17.8936C110.345 18.3666 109.923 18.8301 109.471 19.2841C109.039 19.7193 108.646 20.1639 108.293 20.6179C107.959 21.0719 107.713 21.5449 107.556 22.0368C107.517 22.1881 107.478 22.3395 107.438 22.4908C107.419 22.6233 107.399 22.7651 107.379 22.9165C107.281 23.1624 107.173 23.3516 107.055 23.484C106.937 23.5976 106.761 23.6543 106.525 23.6543H103.048ZM103.048 29.3015C102.832 29.3015 102.655 29.2353 102.518 29.1028C102.38 28.9704 102.312 28.8001 102.312 28.592V25.7543C102.312 25.5651 102.38 25.4043 102.518 25.2718C102.655 25.1205 102.832 25.0448 103.048 25.0448H106.348C106.545 25.0448 106.711 25.1205 106.849 25.2718C107.006 25.4043 107.085 25.5651 107.085 25.7543V28.592C107.085 28.8001 107.006 28.9704 106.849 29.1028C106.711 29.2353 106.545 29.3015 106.348 29.3015H103.048Z" fill="white" style="fill:white;fill-opacity:1;"/>
<path d="M4.09766 56.3818H54.0977" stroke="#D6DAEC" style="stroke:#D6DAEC;stroke:color(display-p3 0.8392 0.8549 0.9255);stroke-opacity:1;" stroke-dasharray="4 4"/>
</svg>
