<svg width="90" height="124" viewBox="0 0 90 124" fill="none" xmlns="http://www.w3.org/2000/svg">
<path fill-rule="evenodd" clip-rule="evenodd" d="M18.2429 48.9568C18.5651 48.6024 19.0218 48.4004 19.5008 48.4004H70.5008C70.9798 48.4004 71.4365 48.6024 71.7587 48.9568L88.7587 67.6568C89.3903 68.3516 89.3391 69.4267 88.6443 70.0583C87.9496 70.6899 86.8745 70.6387 86.2429 69.9439L69.7488 51.8004H20.2528L3.75869 69.9439C3.12713 70.6387 2.05197 70.6899 1.35725 70.0583C0.662531 69.4267 0.611333 68.3516 1.2429 67.6568L18.2429 48.9568Z" fill="#B0B7D3" style="fill:#B0B7D3;fill:color(display-p3 0.6902 0.7176 0.8275);fill-opacity:1;"/>
<ellipse cx="44.9992" cy="68.7996" rx="23.8" ry="10.2" fill="#B0B7D3" style="fill:#B0B7D3;fill:color(display-p3 0.6902 0.7176 0.8275);fill-opacity:1;"/>
<path fill-rule="evenodd" clip-rule="evenodd" d="M11.0008 0.799805C10.0619 0.799805 9.30078 1.56092 9.30078 2.4998V19.4998C9.30078 19.9817 9.50533 20.441 9.86354 20.7634L26.3008 35.5569V72.1998C26.3008 75.0165 28.5841 77.2998 31.4008 77.2998H58.6008C61.4174 77.2998 63.7008 75.0165 63.7008 72.1998V35.5569L80.138 20.7634C80.4962 20.441 80.7008 19.9817 80.7008 19.4998V2.4998C80.7008 1.56092 79.9397 0.799805 79.0008 0.799805H55.2008C54.2619 0.799805 53.5008 1.56092 53.5008 2.4998V7.5998H36.5008V2.4998C36.5008 1.56092 35.7397 0.799805 34.8008 0.799805H11.0008ZM3.76509 67.6634C3.29441 67.1397 2.54965 66.9604 1.89223 67.2125C1.2348 67.4645 0.800781 68.0957 0.800781 68.7998V104.5C0.800781 104.951 0.979888 105.383 1.2987 105.702L18.2987 122.702C18.6175 123.021 19.0499 123.2 19.5008 123.2H70.5008C70.9517 123.2 71.384 123.021 71.7029 122.702L88.7029 105.702C89.0217 105.383 89.2008 104.951 89.2008 104.5V68.7998C89.2008 68.1033 88.7759 67.4772 88.1286 67.22C87.4813 66.9627 86.7426 67.1264 86.2645 67.633L68.9177 86.0123H20.2585L3.76509 67.6634Z" fill="#D6DAEC" style="fill:#D6DAEC;fill:color(display-p3 0.8392 0.8549 0.9255);fill-opacity:1;"/>
<path fill-rule="evenodd" clip-rule="evenodd" d="M23.1141 90.2627C24.0529 90.2627 24.8141 91.0238 24.8141 91.9627V117.888C24.8141 118.827 24.0529 119.588 23.1141 119.588C22.1752 119.588 21.4141 118.827 21.4141 117.888V91.9627C21.4141 91.0238 22.1752 90.2627 23.1141 90.2627Z" fill="#706C86" style="fill:#706C86;fill:color(display-p3 0.4392 0.4235 0.5255);fill-opacity:1;"/>
<path fill-rule="evenodd" clip-rule="evenodd" d="M67.0984 90.2627C68.0373 90.2627 68.7984 91.0238 68.7984 91.9627V117.888C68.7984 118.827 68.0373 119.588 67.0984 119.588C66.1596 119.588 65.3984 118.827 65.3984 117.888V91.9627C65.3984 91.0238 66.1596 90.2627 67.0984 90.2627Z" fill="#706C86" style="fill:#706C86;fill:color(display-p3 0.4392 0.4235 0.5255);fill-opacity:1;"/>
<path fill-rule="evenodd" clip-rule="evenodd" d="M11.0008 0.799805C10.0619 0.799805 9.30078 1.56092 9.30078 2.4998V19.4998C9.30078 20.4387 10.0619 21.1998 11.0008 21.1998H79.0008C79.9397 21.1998 80.7008 20.4387 80.7008 19.4998V2.4998C80.7008 1.56092 79.9397 0.799805 79.0008 0.799805H55.2008C54.2619 0.799805 53.5008 1.56092 53.5008 2.4998V7.5998H36.5008V2.4998C36.5008 1.56092 35.7397 0.799805 34.8008 0.799805H11.0008Z" fill="#B0B7D3" style="fill:#B0B7D3;fill:color(display-p3 0.6902 0.7176 0.8275);fill-opacity:1;"/>
<path fill-rule="evenodd" clip-rule="evenodd" d="M29.9824 73.2235C33.7419 74.6695 39.0506 75.5998 44.9992 75.5998C50.9479 75.5998 56.2566 74.6695 60.016 73.2235C61.9014 72.4984 63.3105 71.6766 64.2188 70.8506C65.1266 70.0252 65.3992 69.3297 65.3992 68.7998H68.7992C68.7992 70.6172 67.8351 72.1578 66.5062 73.3661C65.1778 74.5741 63.3505 75.5838 61.2365 76.3969C56.9973 78.0274 51.2561 78.9998 44.9992 78.9998C38.7424 78.9998 33.0011 78.0274 28.7619 76.3969C26.648 75.5838 24.8206 74.5741 23.4922 73.3661C22.1634 72.1578 21.1992 70.6172 21.1992 68.7998H24.5992C24.5992 69.3297 24.8719 70.0252 25.7797 70.8506C26.6879 71.6766 28.097 72.4984 29.9824 73.2235Z" fill="#B0B7D3" style="fill:#B0B7D3;fill:color(display-p3 0.6902 0.7176 0.8275);fill-opacity:1;"/>
<path fill-rule="evenodd" clip-rule="evenodd" d="M58.5611 39.5444C58.7578 40.4624 58.173 41.3661 57.255 41.5628L33.455 46.6628C32.5369 46.8595 31.6332 46.2748 31.4365 45.3567C31.2398 44.4387 31.8245 43.535 32.7426 43.3383L56.5426 38.2383C57.4606 38.0416 58.3643 38.6263 58.5611 39.5444Z" fill="#706C86" style="fill:#706C86;fill:color(display-p3 0.4392 0.4235 0.5255);fill-opacity:1;"/>
<path fill-rule="evenodd" clip-rule="evenodd" d="M58.5611 49.7436C58.7578 50.6616 58.173 51.5653 57.255 51.762L33.455 56.862C32.5369 57.0588 31.6332 56.474 31.4365 55.556C31.2398 54.6379 31.8245 53.7342 32.7426 53.5375L56.5426 48.4375C57.4606 48.2408 58.3643 48.8255 58.5611 49.7436Z" fill="#706C86" style="fill:#706C86;fill:color(display-p3 0.4392 0.4235 0.5255);fill-opacity:1;"/>
<path fill-rule="evenodd" clip-rule="evenodd" d="M58.5611 59.9438C58.7578 60.8618 58.173 61.7655 57.255 61.9622L33.455 67.0622C32.5369 67.2589 31.6332 66.6742 31.4365 65.7562C31.2398 64.8381 31.8245 63.9344 32.7426 63.7377L56.5426 58.6377C57.4606 58.441 58.3643 59.0257 58.5611 59.9438Z" fill="#706C86" style="fill:#706C86;fill:color(display-p3 0.4392 0.4235 0.5255);fill-opacity:1;"/>
</svg>
