<svg width="150" height="125" viewBox="0 0 150 125" fill="none" xmlns="http://www.w3.org/2000/svg">
<path d="M85 11.8232C85 17.3461 80.5228 21.8232 75 21.8232C69.4772 21.8232 65 17.3461 65 11.8232C65 6.30039 69.4772 1.82324 75 1.82324C80.5228 1.82324 85 6.30039 85 11.8232Z" fill="#B0B7D3" style="fill:#B0B7D3;fill:color(display-p3 0.6902 0.7176 0.8275);fill-opacity:1;"/>
<path d="M75 41.8232V21.8232M75 21.8232C80.5228 21.8232 85 17.3461 85 11.8232C85 6.30039 80.5228 1.82324 75 1.82324C69.4772 1.82324 65 6.30039 65 11.8232C65 17.3461 69.4772 21.8232 75 21.8232Z" stroke="#B0B7D3" style="stroke:#B0B7D3;stroke:color(display-p3 0.6902 0.7176 0.8275);stroke-opacity:1;" stroke-width="3.52941"/>
<rect x="2.05859" y="65.3525" width="145.882" height="28.2353" rx="14.1176" fill="#B0B7D3" stroke="#B0B7D3" style="fill:#B0B7D3;fill:color(display-p3 0.6902 0.7176 0.8275);fill-opacity:1;stroke:#B0B7D3;stroke:color(display-p3 0.6902 0.7176 0.8275);stroke-opacity:1;" stroke-width="2.35294"/>
<path fill-rule="evenodd" clip-rule="evenodd" d="M92.1078 33.5889C93.5898 36.6775 95.6568 39.4258 98.1624 41.6859V50.569C98.1624 51.273 98.5135 51.9298 99.0969 52.317C99.6803 52.7042 100.418 52.7699 101.06 52.4919L111.421 48.0029C112.699 48.1997 114.007 48.3016 115.337 48.3016H123.964C124.529 48.3016 125.09 48.2832 125.646 48.2471C127.859 52.2757 129.118 56.9029 129.118 61.8242V95.9418C129.118 111.536 116.477 124.177 100.883 124.177H49.1181C33.5242 124.177 20.8828 111.536 20.8828 95.9418V61.8242C20.8828 46.2303 33.5242 33.5889 49.1181 33.5889H92.1078Z" fill="#D6DAEC" style="fill:#D6DAEC;fill:color(display-p3 0.8392 0.8549 0.9255);fill-opacity:1;"/>
<rect x="33.8242" y="58.2939" width="82.3529" height="43.5294" rx="21.7647" fill="#B0B7D3" style="fill:#B0B7D3;fill:color(display-p3 0.6902 0.7176 0.8275);fill-opacity:1;"/>
<path d="M57.9407 71.2348C62.8105 71.2348 66.7642 75.1887 66.7642 80.0581C66.7642 84.9386 62.8105 88.8818 57.9407 88.8818C53.0603 88.8818 49.1172 84.9386 49.1172 80.0581C49.1172 75.1887 53.0603 71.2348 57.9407 71.2348Z" fill="white" style="fill:white;fill-opacity:1;"/>
<path d="M92.0579 71.2348C96.9276 71.2348 100.881 75.1887 100.881 80.0581C100.881 84.9386 96.9276 88.8818 92.0579 88.8818C87.1775 88.8818 83.2344 84.9386 83.2344 80.0581C83.2344 75.1887 87.1775 71.2348 92.0579 71.2348Z" fill="white" style="fill:white;fill-opacity:1;"/>
<path d="M106.039 31.333H131.016M106.039 18.686H122.69M91.4688 25.0095C91.4688 12.2041 101.72 1.82324 114.365 1.82324H122.69C135.336 1.82324 145.586 12.2041 145.586 25.0095C145.586 37.8149 135.336 48.1958 122.69 48.1958H114.365C112.989 48.1958 111.642 48.073 110.333 47.8376L99.7945 52.4115V42.896C94.7096 38.6432 91.4688 32.2096 91.4688 25.0095Z" stroke="#706C86" style="stroke:#706C86;stroke:color(display-p3 0.4392 0.4235 0.5255);stroke-opacity:1;" stroke-width="3.52941" stroke-miterlimit="10" stroke-linecap="square" stroke-linejoin="round"/>
</svg>
