<svg width="136" height="142" viewBox="0 0 136 142" fill="none" xmlns="http://www.w3.org/2000/svg">
<circle cx="67.9989" cy="89.2362" r="44.7059" fill="#D6DAEC" style="fill:#D6DAEC;fill:color(display-p3 0.8392 0.8549 0.9255);fill-opacity:1;"/>
<path d="M32.7052 13.9415C32.7052 20.4389 27.438 25.7062 20.9405 25.7062C14.443 25.7062 9.17578 20.4389 9.17578 13.9415C9.17578 7.444 14.443 2.17676 20.9405 2.17676C27.438 2.17676 32.7052 7.444 32.7052 13.9415Z" stroke="#B0B7D3" style="stroke:#B0B7D3;stroke:color(display-p3 0.6902 0.7176 0.8275);stroke-opacity:1;" stroke-width="3.52941" stroke-linecap="square"/>
<path d="M79.7638 79.8243C79.7638 86.3217 74.4965 91.589 67.9991 91.589C61.5016 91.589 56.2344 86.3217 56.2344 79.8243C56.2344 73.3268 61.5016 68.0596 67.9991 68.0596C74.4965 68.0596 79.7638 73.3268 79.7638 79.8243Z" stroke="#706C86" style="stroke:#706C86;stroke:color(display-p3 0.4392 0.4235 0.5255);stroke-opacity:1;" stroke-width="3.52941" stroke-linecap="square"/>
<path d="M126.822 13.9415C126.822 20.4389 121.555 25.7062 115.058 25.7062C108.56 25.7062 103.293 20.4389 103.293 13.9415C103.293 7.444 108.56 2.17676 115.058 2.17676C121.555 2.17676 126.822 7.444 126.822 13.9415Z" stroke="#B0B7D3" style="stroke:#B0B7D3;stroke:color(display-p3 0.6902 0.7176 0.8275);stroke-opacity:1;" stroke-width="3.52941" stroke-linecap="square"/>
<path d="M39.7642 44.5296C39.7642 34.1336 31.3367 25.7061 20.9407 25.7061C10.5448 25.7061 2.11719 34.1336 2.11719 44.5296" stroke="#B0B7D3" style="stroke:#B0B7D3;stroke:color(display-p3 0.6902 0.7176 0.8275);stroke-opacity:1;" stroke-width="3.52941" stroke-linecap="square"/>
<path d="M86.8228 110.412C86.8228 100.016 78.3953 91.5889 67.9993 91.5889C57.6034 91.5889 49.1758 100.016 49.1758 110.412" stroke="#706C86" style="stroke:#706C86;stroke:color(display-p3 0.4392 0.4235 0.5255);stroke-opacity:1;" stroke-width="3.52941" stroke-linecap="square"/>
<path d="M133.881 44.5296C133.881 34.1336 125.454 25.7061 115.058 25.7061C104.662 25.7061 96.2344 34.1336 96.2344 44.5296" stroke="#B0B7D3" style="stroke:#B0B7D3;stroke:color(display-p3 0.6902 0.7176 0.8275);stroke-opacity:1;" stroke-width="3.52941" stroke-linecap="square"/>
<path d="M68 50.4122V38.6475" stroke="#706C86" style="stroke:#706C86;stroke:color(display-p3 0.4392 0.4235 0.5255);stroke-opacity:1;" stroke-width="3.52941" stroke-linecap="square" stroke-linejoin="round"/>
<path d="M68 139.824V128.06" stroke="#706C86" style="stroke:#706C86;stroke:color(display-p3 0.4392 0.4235 0.5255);stroke-opacity:1;" stroke-width="3.52941" stroke-linecap="square" stroke-linejoin="round"/>
<path d="M106.825 89.2363L118.59 89.2363" stroke="#706C86" style="stroke:#706C86;stroke:color(display-p3 0.4392 0.4235 0.5255);stroke-opacity:1;" stroke-width="3.52941" stroke-linecap="square" stroke-linejoin="round"/>
<path d="M17.4111 89.2354L29.1758 89.2354" stroke="#706C86" style="stroke:#706C86;stroke:color(display-p3 0.4392 0.4235 0.5255);stroke-opacity:1;" stroke-width="3.52941" stroke-linecap="square" stroke-linejoin="round"/>
</svg>
