<svg width="122" height="122" viewBox="0 0 122 122" fill="none" xmlns="http://www.w3.org/2000/svg">
<path fill-rule="evenodd" clip-rule="evenodd" d="M114.03 94H102.97H102.969C101.937 94 101.056 93.9999 100.332 94.0591C99.5703 94.1213 98.8254 94.2579 98.1123 94.6213C97.0397 95.1677 96.1677 96.0397 95.6213 97.1123C95.2579 97.8254 95.1213 98.5703 95.0591 99.3319C94.9999 100.056 95 100.937 95 101.969V101.97V113.03V113.031C95 114.063 94.9999 114.944 95.0591 115.668C95.1213 116.43 95.2579 117.175 95.6213 117.888C96.1677 118.96 97.0397 119.832 98.1123 120.379C98.8254 120.742 99.5703 120.879 100.332 120.941C101.056 121 101.938 121 102.97 121H114.03C115.062 121 115.944 121 116.668 120.941C117.43 120.879 118.175 120.742 118.888 120.379C119.96 119.832 120.832 118.96 121.379 117.888C121.742 117.175 121.879 116.43 121.941 115.668C122 114.944 122 114.062 122 113.03V101.97C122 100.938 122 100.056 121.941 99.3319C121.879 98.5703 121.742 97.8254 121.379 97.1123C120.832 96.0397 119.96 95.1677 118.888 94.6213C118.175 94.2579 117.43 94.1213 116.668 94.0591C115.944 93.9999 115.063 94 114.031 94H114.03Z" fill="#B0B7D3" style="fill:#B0B7D3;fill:color(display-p3 0.6910 0.7161 0.8292);fill-opacity:1;"/>
<path fill-rule="evenodd" clip-rule="evenodd" d="M61.5 93C53.4919 93 47 99.4919 47 107.5C47 115.508 53.4919 122 61.5 122C69.5081 122 76 115.508 76 107.5C76 99.4919 69.5081 93 61.5 93Z" fill="#B0B7D3" style="fill:#B0B7D3;fill:color(display-p3 0.6910 0.7161 0.8292);fill-opacity:1;"/>
<path fill-rule="evenodd" clip-rule="evenodd" d="M16.9289 96.3443C16.6884 96.0034 16.3048 95.5276 15.6927 95.2544C14.933 94.9152 14.067 94.9152 13.3073 95.2544C12.6952 95.5276 12.3116 96.0034 12.0711 96.3443C11.8366 96.6767 11.5896 97.1053 11.3349 97.547L11.302 97.6041L1.04908 115.385L1.01599 115.442C0.760357 115.885 0.512372 116.315 0.341464 116.686C0.167334 117.064 -0.057532 117.643 0.0134423 118.327C0.101587 119.176 0.543942 119.941 1.22135 120.435C1.76449 120.832 2.36502 120.925 2.77514 120.963C3.17819 121 3.67103 121 4.18226 121H24.8177C25.329 121 25.8218 121 26.2249 120.963C26.635 120.925 27.2355 120.832 27.7786 120.435C28.4561 119.941 28.8984 119.176 28.9866 118.327C29.0575 117.643 28.8327 117.064 28.6585 116.686C28.4876 116.315 28.2397 115.885 27.984 115.442L17.6651 97.5471L17.665 97.547C17.4104 97.1052 17.1634 96.6767 16.9289 96.3443Z" fill="#B0B7D3" style="fill:#B0B7D3;fill:color(display-p3 0.6910 0.7161 0.8292);fill-opacity:1;"/>
<path fill-rule="evenodd" clip-rule="evenodd" d="M29.3 0C25.5445 0 22.5 3.04446 22.5 6.8C22.5001 24.9326 22.5 22.0667 22.5 40.1992H100.5L100.5 14.6942C100.5 11.1909 97.66 8.35088 94.1567 8.35088H63.7533C62.8355 8.35088 61.9567 7.97983 61.3166 7.32207L56.1937 2.05762C54.9135 0.7421 53.1559 0 51.3203 0H29.3Z" fill="#B0B7D3" style="fill:#B0B7D3;fill:color(display-p3 0.6902 0.7176 0.8275);fill-opacity:1;"/>
<path d="M30.5 20C30.5 16.6863 33.1863 14 36.5 14H92.5V42H30.5V20Z" fill="white" style="fill:white;fill-opacity:1;"/>
<path d="M36.5 21H48.5" stroke="#B0B7D3" style="stroke:#B0B7D3;stroke:color(display-p3 0.6902 0.7176 0.8275);stroke-opacity:1;" stroke-width="2"/>
<path d="M14.5 88V85C14.5 78.3726 19.8726 73 26.5 73H96.5C103.127 73 108.5 78.3726 108.5 85V88" stroke="#706C86" style="stroke:#706C86;stroke:color(display-p3 0.4392 0.4235 0.5255);stroke-opacity:1;" stroke-width="4"/>
<path d="M61.5 88V61" stroke="#706C86" style="stroke:#706C86;stroke:color(display-p3 0.4392 0.4235 0.5255);stroke-opacity:1;" stroke-width="4"/>
<path d="M36.5 25H48.5" stroke="#B0B7D3" style="stroke:#B0B7D3;stroke:color(display-p3 0.6902 0.7176 0.8275);stroke-opacity:1;" stroke-width="2"/>
<path fill-rule="evenodd" clip-rule="evenodd" d="M93.6999 22C97.4555 22 100.5 25.0445 100.5 28.8L100.5 54.1984C100.5 57.954 97.4554 60.9984 93.6998 60.9984H22.5V36.3394C22.5 32.8361 25.34 29.9961 28.8433 29.9961H59.3473C60.2651 29.9961 61.144 29.625 61.784 28.9673L66.907 24.0576C68.1872 22.7421 69.9448 22 71.7804 22H93.6999Z" fill="#D6DAEC" style="fill:#D6DAEC;fill:color(display-p3 0.8392 0.8549 0.9255);fill-opacity:1;"/>
</svg>
