<svg width="125" height="122" viewBox="0 0 125 122" fill="none" xmlns="http://www.w3.org/2000/svg">
<path d="M4.19922 28.8203H34.1992" stroke="#D6DAEC" style="stroke:#D6DAEC;stroke:color(display-p3 0.8392 0.8549 0.9255);stroke-opacity:1;" stroke-dasharray="4 4"/>
<path d="M4.19922 68.8203H56.1992" stroke="#D6DAEC" style="stroke:#D6DAEC;stroke:color(display-p3 0.8392 0.8549 0.9255);stroke-opacity:1;" stroke-dasharray="4 4"/>
<rect x="34.1992" y="28.3203" width="14" height="93" fill="#B0B7D3" style="fill:#B0B7D3;fill:color(display-p3 0.6902 0.7176 0.8275);fill-opacity:1;"/>
<rect x="56.1992" y="68.3203" width="14" height="53" fill="#B0B7D3" style="fill:#B0B7D3;fill:color(display-p3 0.6902 0.7176 0.8275);fill-opacity:1;"/>
<rect x="12.1992" y="86.3203" width="14" height="35" fill="#D6DAEC" style="fill:#D6DAEC;fill:color(display-p3 0.8392 0.8549 0.9255);fill-opacity:1;"/>
<rect x="78.1992" y="78.3203" width="14" height="43" fill="#D6DAEC" style="fill:#D6DAEC;fill:color(display-p3 0.8392 0.8549 0.9255);fill-opacity:1;"/>
<rect x="100.199" y="101.32" width="14" height="20" fill="#D6DAEC" style="fill:#D6DAEC;fill:color(display-p3 0.8392 0.8549 0.9255);fill-opacity:1;"/>
<path d="M122.199 62.3203L109.023 49.1438M117.056 29.7489C117.056 44.8973 104.776 57.1775 89.6278 57.1775C74.4794 57.1775 62.1992 44.8973 62.1992 29.7489C62.1992 14.6005 74.4794 2.32031 89.6278 2.32031C104.776 2.32031 117.056 14.6005 117.056 29.7489Z" stroke="#706C86" style="stroke:#706C86;stroke:color(display-p3 0.4392 0.4235 0.5255);stroke-opacity:1;" stroke-width="3" stroke-linecap="square" stroke-linejoin="round"/>
<path d="M75.1992 22.3203H104.199V42.3203C104.199 44.5295 102.408 46.3203 100.199 46.3203H79.1992C76.9901 46.3203 75.1992 44.5295 75.1992 42.3203V22.3203Z" fill="#706C86" style="fill:#706C86;fill:color(display-p3 0.4392 0.4235 0.5255);fill-opacity:1;"/>
<path d="M83.1992 22.3203V20.8203C83.1992 17.2305 86.1094 14.3203 89.6992 14.3203V14.3203C93.2891 14.3203 96.1992 17.2305 96.1992 20.8203V22.3203" stroke="#706C86" style="stroke:#706C86;stroke:color(display-p3 0.4392 0.4235 0.5255);stroke-opacity:1;" stroke-width="4"/>
<path fill-rule="evenodd" clip-rule="evenodd" d="M2.50078 10.9492C3.43967 10.9492 4.20078 11.7009 4.20078 12.6282V118.32H121.501C122.44 118.32 123.201 119.072 123.201 119.999C123.201 120.927 122.44 121.678 121.501 121.678H2.50078C1.5619 121.678 0.800781 120.927 0.800781 119.999V12.6282C0.800781 11.7009 1.5619 10.9492 2.50078 10.9492Z" fill="#B0B7D3" style="fill:#B0B7D3;fill:color(display-p3 0.6902 0.7176 0.8275);fill-opacity:1;"/>
</svg>
