<svg width="128" height="122" viewBox="0 0 128 122" fill="none" xmlns="http://www.w3.org/2000/svg">
<path d="M4.48047 102.4C4.48047 100.16 4.48047 99.0397 4.91644 98.184C5.29994 97.4314 5.91186 96.8195 6.66451 96.436C7.52015 96 8.64026 96 10.8805 96H22.0805C24.3207 96 25.4408 96 26.2964 96.436C27.0491 96.8195 27.661 97.4314 28.0445 98.184C28.4805 99.0397 28.4805 100.16 28.4805 102.4V113.6C28.4805 115.84 28.4805 116.96 28.0445 117.816C27.661 118.569 27.0491 119.181 26.2964 119.564C25.4408 120 24.3207 120 22.0805 120H10.8805C8.64026 120 7.52015 120 6.66451 119.564C5.91186 119.181 5.29994 118.569 4.91644 117.816C4.48047 116.96 4.48047 115.84 4.48047 113.6V102.4Z" stroke="#B0B7D3" style="stroke:#B0B7D3;stroke:color(display-p3 0.6902 0.7176 0.8275);stroke-opacity:1;" stroke-width="4" stroke-linecap="square" stroke-linejoin="round"/>
<path d="M15.9805 75C23.4363 75 29.4805 68.9558 29.4805 61.5C29.4805 54.0442 23.4363 48 15.9805 48C8.52462 48 2.48047 54.0442 2.48047 61.5C2.48047 68.9558 8.52462 75 15.9805 75Z" stroke="#B0B7D3" style="stroke:#B0B7D3;stroke:color(display-p3 0.6902 0.7176 0.8275);stroke-opacity:1;" stroke-width="4" stroke-linecap="square" stroke-linejoin="round"/>
<path d="M3.37238 22.7985L14.5917 3.86072C15.2117 2.81407 15.5218 2.29075 15.9263 2.11499C16.2791 1.96167 16.6819 1.96167 17.0347 2.11499C17.4392 2.29075 17.7492 2.81407 18.3693 3.86071L29.5886 22.7985C30.2109 23.8489 30.522 24.3741 30.476 24.8052C30.4359 25.1812 30.2343 25.5228 29.9215 25.7451C29.5628 26 28.9418 26 27.6998 26H5.26118C4.01916 26 3.39815 26 3.03946 25.7451C2.7266 25.5228 2.52503 25.1812 2.48492 24.8052C2.43894 24.3741 2.75008 23.8489 3.37238 22.7985Z" stroke="#B0B7D3" style="stroke:#B0B7D3;stroke:color(display-p3 0.6902 0.7176 0.8275);stroke-opacity:1;" stroke-width="4" stroke-linecap="square" stroke-linejoin="round"/>
<path d="M101.116 39.1998C101.715 37.9527 102.014 37.3292 102.421 37.13C102.775 36.9567 103.186 36.9567 103.54 37.13C103.946 37.3292 104.246 37.9527 104.845 39.1998L110.529 51.0309C110.706 51.3991 110.794 51.5832 110.923 51.7261C111.038 51.8527 111.175 51.9552 111.327 52.028C111.5 52.1103 111.697 52.14 112.093 52.1994L124.806 54.1087C126.145 54.3098 126.814 54.4103 127.124 54.7463C127.394 55.0386 127.521 55.4403 127.469 55.8395C127.41 56.2984 126.926 56.7834 125.956 57.7534L116.76 66.9567C116.474 67.2436 116.33 67.3871 116.238 67.5578C116.156 67.7089 116.103 67.8749 116.083 68.0466C116.06 68.2405 116.094 68.4432 116.162 68.8484L118.331 81.8478C118.56 83.2189 118.675 83.9044 118.46 84.3112C118.273 84.6651 117.94 84.9134 117.555 84.9868C117.112 85.0712 116.512 84.7475 115.314 84.1L103.948 77.9585C103.594 77.7671 103.417 77.6714 103.231 77.6339C103.065 77.6006 102.896 77.6006 102.73 77.6339C102.544 77.6714 102.367 77.7671 102.013 77.9585L90.6468 84.1C89.4485 84.7475 88.8494 85.0712 88.4064 84.9868C88.0209 84.9134 87.6883 84.6651 87.5012 84.3112C87.2862 83.9044 87.4006 83.2189 87.6295 81.8478L89.7993 68.8484C89.867 68.4432 89.9008 68.2405 89.8779 68.0466C89.8577 67.8749 89.8051 67.7089 89.7232 67.5578C89.6307 67.3871 89.4874 67.2436 89.2007 66.9567L80.0045 57.7534C79.0353 56.7834 78.5506 56.2984 78.4917 55.8395C78.4404 55.4403 78.5671 55.0386 78.8366 54.7463C79.1464 54.4103 79.8158 54.3098 81.1546 54.1087L93.8683 52.1994C94.2636 52.14 94.4613 52.1103 94.6335 52.028C94.7859 51.9552 94.9232 51.8527 95.0376 51.7261C95.1668 51.5832 95.2553 51.3991 95.4321 51.0309L101.116 39.1998Z" fill="#B0B7D3" style="fill:#B0B7D3;fill:color(display-p3 0.6902 0.7176 0.8275);fill-opacity:1;"/>
<mask id="mask0_13786_61415" style="mask-type:alpha" maskUnits="userSpaceOnUse" x="78" y="37" width="50" height="48">
<path d="M101.111 39.1998C101.711 37.9527 102.011 37.3292 102.419 37.13C102.773 36.9567 103.185 36.9567 103.539 37.13C103.947 37.3292 104.247 37.9527 104.847 39.1998L110.541 51.0309C110.719 51.3991 110.807 51.5832 110.937 51.7261C111.051 51.8527 111.189 51.9552 111.342 52.028C111.514 52.1103 111.712 52.14 112.108 52.1994L124.845 54.1087C126.187 54.3098 126.857 54.4103 127.168 54.7463C127.438 55.0386 127.565 55.4403 127.513 55.8395C127.454 56.2984 126.969 56.7834 125.998 57.7534L116.784 66.9567C116.497 67.2436 116.354 67.3871 116.261 67.5578C116.179 67.7089 116.126 67.8749 116.106 68.0466C116.083 68.2405 116.117 68.4432 116.185 68.8484L118.359 81.8478C118.588 83.2189 118.702 83.9044 118.487 84.3112C118.3 84.6651 117.966 84.9134 117.58 84.9868C117.136 85.0712 116.536 84.7475 115.336 84.1L103.949 77.9585C103.594 77.7671 103.417 77.6714 103.23 77.6339C103.064 77.6006 102.894 77.6006 102.728 77.6339C102.542 77.6714 102.364 77.7671 102.009 77.9585L90.6225 84.1C89.422 84.7475 88.8217 85.0712 88.3779 84.9868C87.9917 84.9134 87.6585 84.6651 87.4711 84.3112C87.2556 83.9044 87.3703 83.2189 87.5996 81.8478L89.7735 68.8484C89.8412 68.4432 89.8751 68.2405 89.8522 68.0466C89.8319 67.8749 89.7793 67.7089 89.6972 67.5578C89.6045 67.3871 89.4609 67.2436 89.1737 66.9567L79.9605 57.7534C78.9894 56.7834 78.5039 56.2984 78.4448 55.8395C78.3934 55.4403 78.5204 55.0386 78.7904 54.7463C79.1008 54.4103 79.7714 54.3098 81.1127 54.1087L93.8499 52.1994C94.2461 52.14 94.4441 52.1103 94.6166 52.028C94.7693 51.9552 94.9068 51.8527 95.0214 51.7261C95.1509 51.5832 95.2395 51.3991 95.4167 51.0309L101.111 39.1998Z" fill="#B0B7D3" style="fill:#B0B7D3;fill:color(display-p3 0.6902 0.7176 0.8275);fill-opacity:1;"/>
</mask>
<g mask="url(#mask0_13786_61415)">
<path d="M104.637 60.4375L127.374 54.9648C128.843 54.9648 129.14 56.2589 129.104 56.9059L118.23 68.9456C118.618 73.0294 119.437 81.543 119.607 82.9271C119.819 84.6571 117.771 86.0341 117.453 86.0694C117.199 86.0976 107.509 81.1382 102.695 78.6549V62.2726C102.695 61.1993 103.99 60.602 104.637 60.4375Z" fill="#706C86" fill-opacity="0.2" style="fill:#706C86;fill:color(display-p3 0.4392 0.4235 0.5255);fill-opacity:0.2;"/>
<path d="M99.6197 59.379L79.3681 55.8699C77.9853 55.375 78.142 54.0566 78.3933 53.4593L92.6887 45.7881C93.6992 41.8123 95.7968 33.5205 96.1036 32.1603C96.4871 30.4601 98.8791 29.8537 99.1902 29.9275C99.4391 29.9866 98.8915 30.9213 102.587 34.8813C102.587 42.6523 102.428 57.295 102.066 58.3055C101.705 59.3161 100.285 59.4422 99.6197 59.379Z" fill="white" fill-opacity="0.2" style="fill:white;fill-opacity:0.2;"/>
</g>
<path d="M37.9805 108.6H43.5805C47.9987 108.6 51.5805 105.019 51.5805 100.6V21.4004C51.5805 16.9821 47.9987 13.4004 43.5805 13.4004H37.9805M37.9805 61.0004H73.6805M73.6805 61.0004L65.1805 52.5004M73.6805 61.0004L65.1805 69.5004" stroke="#706C86" style="stroke:#706C86;stroke:color(display-p3 0.4392 0.4235 0.5255);stroke-opacity:1;" stroke-width="4" stroke-linecap="square" stroke-linejoin="round"/>
</svg>
