<svg width="136" height="144" viewBox="0 0 136 144" fill="none" xmlns="http://www.w3.org/2000/svg">
<path d="M0.721752 84.21L0.931818 85.9622L4.43614 85.542L4.22607 83.7899L0.721752 84.21ZM15.5984 35.738L17.0027 36.8067L15.5984 35.738ZM4.22607 83.7899C2.22052 67.0616 6.80346 50.2094 17.0027 36.8067L14.1941 34.6694C3.43928 48.8021 -1.39292 66.5716 0.721752 84.21L4.22607 83.7899ZM17.0027 36.8067C27.202 23.4041 42.2153 14.505 58.8591 11.996L58.3329 8.50599C40.7808 11.152 24.949 20.5366 14.1941 34.6694L17.0027 36.8067Z" fill="#B0B7D3" style="fill:#B0B7D3;fill:color(display-p3 0.6902 0.7176 0.8275);fill-opacity:1;"/>
<path d="M128.616 50.2321L126.982 50.8988L128.616 50.2321ZM94.7103 12.3846L93.0949 11.6742L91.6742 14.9051L93.2897 15.6154L94.7103 12.3846ZM131.573 102.583C137.588 85.3968 137.114 66.3878 130.25 49.5654L126.982 50.8988C133.52 66.9216 133.973 85.0417 128.241 101.417L131.573 102.583ZM130.25 49.5654C123.385 32.741 110.653 19.3947 94.7103 12.3846L93.2897 15.6154C108.35 22.2379 120.445 34.878 126.982 50.8988L130.25 49.5654Z" fill="#B0B7D3" style="fill:#B0B7D3;fill:color(display-p3 0.6902 0.7176 0.8275);fill-opacity:1;"/>
<path d="M16.7188 117.103C22.1905 123.944 28.9438 129.631 36.5928 133.838C44.2419 138.045 52.6371 140.691 61.2989 141.623C69.9608 142.555 78.7198 141.756 87.0758 139.272C95.4317 136.787 103.221 132.666 109.999 127.142" stroke="#B0B7D3" style="stroke:#B0B7D3;stroke:color(display-p3 0.6902 0.7176 0.8275);stroke-opacity:1;" stroke-width="3.52941" stroke-linecap="square"/>
<circle cx="68" cy="10" r="8.23529" stroke="#706C86" style="stroke:#706C86;stroke:color(display-p3 0.4392 0.4235 0.5255);stroke-opacity:1;" stroke-width="3.52941"/>
<circle cx="124" cy="108" r="8.23529" stroke="#706C86" style="stroke:#706C86;stroke:color(display-p3 0.4392 0.4235 0.5255);stroke-opacity:1;" stroke-width="3.52941"/>
<circle cx="12" cy="108" r="8.23529" stroke="#706C86" style="stroke:#706C86;stroke:color(display-p3 0.4392 0.4235 0.5255);stroke-opacity:1;" stroke-width="3.52941"/>
<path d="M85.6457 54.3531C85.6457 64.0993 77.7448 72.0002 67.9986 72.0002C58.2524 72.0002 50.3516 64.0993 50.3516 54.3531C50.3516 44.6069 58.2524 36.7061 67.9986 36.7061C77.7448 36.7061 85.6457 44.6069 85.6457 54.3531Z" fill="#706C86" style="fill:#706C86;fill:color(display-p3 0.4392 0.4235 0.5255);fill-opacity:1;"/>
<path d="M68.0005 75.5293C49.1578 75.5293 33.8828 88.434 33.8828 104.353C33.8828 104.353 35.8897 116.706 68.0005 116.706C100.111 116.706 102.118 104.353 102.118 104.353C102.118 88.434 86.8431 75.5293 68.0005 75.5293Z" fill="#706C86" style="fill:#706C86;fill:color(display-p3 0.4392 0.4235 0.5255);fill-opacity:1;"/>
</svg>
