<svg width="144" height="135" viewBox="0 0 144 135" fill="none" xmlns="http://www.w3.org/2000/svg">
<path fill-rule="evenodd" clip-rule="evenodd" d="M2.7631 37.2354C1.4636 37.2354 0.410156 38.2888 0.410156 39.5883V125.002C0.410156 126.301 1.46361 127.355 2.7631 127.355H20.6058C19.7237 125.337 19.2344 123.108 19.2344 120.765C19.2344 111.668 26.6085 104.294 35.705 104.294C44.8014 104.294 52.1756 111.668 52.1756 120.765C52.1756 123.108 51.6862 125.337 50.8042 127.355H93.3513V39.5883C93.3513 38.2888 92.2979 37.2354 90.9984 37.2354H2.7631Z" fill="#D6DAEC" style="fill:#D6DAEC;fill:color(display-p3 0.8392 0.8549 0.9255);fill-opacity:1;"/>
<path fill-rule="evenodd" clip-rule="evenodd" d="M117.465 47.8379H93.3516V127.354H102.957C102.075 125.336 101.586 123.108 101.586 120.765C101.586 111.668 108.96 104.294 118.057 104.294C127.153 104.294 134.527 111.668 134.527 120.765C134.527 123.108 134.038 125.336 133.156 127.354H139.568C141.578 127.354 143.587 125.315 143.587 123.276V96.771C143.587 89.656 142.818 87.1091 139.568 80.7462L137.241 76.1895L128.056 54.8786L127.658 53.9546C124.999 47.7851 124.822 47.7864 119.157 47.8297C118.64 47.8336 118.078 47.8379 117.465 47.8379Z" fill="#B0B7D3" style="fill:#B0B7D3;fill:color(display-p3 0.6902 0.7176 0.8275);fill-opacity:1;"/>
<path d="M39.2344 77.8252H60.2344M39.2344 88.4112H60.2344" stroke="#706C86" style="stroke:#706C86;stroke:color(display-p3 0.4392 0.4235 0.5255);stroke-opacity:1;" stroke-width="3.52941" stroke-linecap="round" stroke-linejoin="round"/>
<circle cx="49.2351" cy="34.2937" r="31.1765" fill="white" stroke="#D6DAEC" style="fill:white;fill-opacity:1;stroke:#D6DAEC;stroke:color(display-p3 0.8392 0.8549 0.9255);stroke-opacity:1;" stroke-width="4.70588"/>
<path d="M32.1758 25.4697H66.2934V48.9991C66.2934 51.5981 64.1865 53.705 61.5875 53.705H36.8817C34.2827 53.705 32.1758 51.5981 32.1758 48.9991V25.4697Z" fill="#706C86" style="fill:#706C86;fill:color(display-p3 0.4392 0.4235 0.5255);fill-opacity:1;"/>
<path d="M41.5859 25.4704V23.7057C41.5859 19.4823 45.0096 16.0586 49.233 16.0586V16.0586C53.4564 16.0586 56.8801 19.4823 56.8801 23.7057V25.4704" stroke="#706C86" style="stroke:#706C86;stroke:color(display-p3 0.4392 0.4235 0.5255);stroke-opacity:1;" stroke-width="4.70588"/>
<circle cx="35.7022" cy="120.765" r="11.7647" fill="white" stroke="#706C86" style="fill:white;fill-opacity:1;stroke:#706C86;stroke:color(display-p3 0.4392 0.4235 0.5255);stroke-opacity:1;" stroke-width="3.52941"/>
<circle cx="118.292" cy="121.118" r="11.7647" fill="white" stroke="#706C86" style="fill:white;fill-opacity:1;stroke:#706C86;stroke:color(display-p3 0.4392 0.4235 0.5255);stroke-opacity:1;" stroke-width="3.52941"/>
</svg>
