<svg width="148" height="144" viewBox="0 0 148 144" fill="none" xmlns="http://www.w3.org/2000/svg">
<path fill-rule="evenodd" clip-rule="evenodd" d="M130.649 61.0881C130.384 60.6384 130.278 60.1136 130.337 59.5951C130.561 57.6095 130.677 55.5909 130.677 53.5453C130.677 24.1025 106.808 0.234375 77.3656 0.234375C47.9228 0.234375 24.0547 24.1025 24.0547 53.5453C24.0547 69.2744 30.8666 83.4125 41.7012 93.1704C42.2088 93.6277 42.5078 94.275 42.5078 94.9582V141.413C42.5078 142.713 43.5613 143.766 44.8608 143.766H101.667C102.967 143.766 104.02 142.713 104.02 141.413V125.615C104.02 124.315 105.074 123.262 106.373 123.262H126.844C130.093 123.262 132.726 120.628 132.726 117.38V94.8585C132.726 93.559 133.78 92.5056 135.079 92.5056H145.016C146.836 92.5056 147.967 90.5282 147.044 88.9597L130.649 61.0881Z" fill="#D6DAEC" style="fill:#D6DAEC;fill:color(display-p3 0.8392 0.8549 0.9255);fill-opacity:1;"/>
<path d="M14.3945 53.1758H50.8651" stroke="#B0B7D3" style="stroke:#B0B7D3;stroke:color(display-p3 0.6902 0.7176 0.8275);stroke-opacity:1;" stroke-width="3.52941" stroke-linecap="square"/>
<path d="M19.1016 11.4111H31.2024L47.3369 28.47" stroke="#B0B7D3" style="stroke:#B0B7D3;stroke:color(display-p3 0.6902 0.7176 0.8275);stroke-opacity:1;" stroke-width="3.52941" stroke-linecap="square" stroke-linejoin="round"/>
<path d="M25.5703 116.705V103.117L47.335 77.8818" stroke="#B0B7D3" style="stroke:#B0B7D3;stroke:color(display-p3 0.6902 0.7176 0.8275);stroke-opacity:1;" stroke-width="3.52941" stroke-linecap="square" stroke-linejoin="round"/>
<path d="M89.759 66.7053C89.4774 66.7053 89.247 66.6151 89.0678 66.4347C88.8886 66.2543 88.799 66.0224 88.799 65.7389V40.6129C88.799 40.3294 88.8886 40.0975 89.0678 39.9171C89.247 39.7367 89.4774 39.6465 89.759 39.6465H94.0215C94.3031 39.6465 94.5335 39.7367 94.7127 39.9171C94.8919 40.0975 94.9815 40.3294 94.9815 40.6129V61.5255H106.886C107.167 61.5255 107.398 61.6157 107.577 61.7961C107.756 61.9765 107.846 62.2084 107.846 62.4919V65.7389C107.846 66.0224 107.756 66.2543 107.577 66.4347C107.398 66.6151 107.167 66.7053 106.886 66.7053H89.759Z" fill="#706C86" style="fill:#706C86;fill:color(display-p3 0.4392 0.4235 0.5255);fill-opacity:1;"/>
<path d="M58.296 66.7053C58.04 66.7053 57.8095 66.6151 57.6047 66.4347C57.4255 66.2543 57.3359 66.0224 57.3359 65.7389V40.6129C57.3359 40.3294 57.4255 40.0975 57.6047 39.9171C57.8095 39.7367 58.04 39.6465 58.296 39.6465H61.8672C62.2512 39.6465 62.5328 39.7496 62.712 39.9557C62.9168 40.1619 63.0576 40.3165 63.1344 40.4196L70.2002 53.5238L77.3427 40.4196C77.3939 40.3165 77.5091 40.1619 77.6883 39.9557C77.8931 39.7496 78.1875 39.6465 78.5715 39.6465H82.1428C82.4244 39.6465 82.6548 39.7367 82.834 39.9171C83.0132 40.0975 83.1028 40.3294 83.1028 40.6129V65.7389C83.1028 66.0224 83.0132 66.2543 82.834 66.4347C82.6548 66.6151 82.4244 66.7053 82.1428 66.7053H78.2259C77.9699 66.7053 77.7523 66.6151 77.5731 66.4347C77.3939 66.2543 77.3043 66.0224 77.3043 65.7389V50.1221L72.4274 59.3221C72.2994 59.554 72.133 59.7602 71.9282 59.9406C71.7234 60.121 71.4546 60.2112 71.1218 60.2112H69.3169C68.9841 60.2112 68.7153 60.121 68.5105 59.9406C68.3057 59.7602 68.1393 59.554 68.0113 59.3221L63.1344 50.1221V65.7389C63.1344 66.0224 63.0448 66.2543 62.8656 66.4347C62.6864 66.6151 62.4688 66.7053 62.2128 66.7053H58.296Z" fill="#706C86" style="fill:#706C86;fill:color(display-p3 0.4392 0.4235 0.5255);fill-opacity:1;"/>
<circle cx="7.92302" cy="53.176" r="5.29412" stroke="#B0B7D3" style="stroke:#B0B7D3;stroke:color(display-p3 0.6902 0.7176 0.8275);stroke-opacity:1;" stroke-width="3.52941"/>
<circle cx="13.8058" cy="11.4103" r="5.29412" stroke="#B0B7D3" style="stroke:#B0B7D3;stroke:color(display-p3 0.6902 0.7176 0.8275);stroke-opacity:1;" stroke-width="3.52941"/>
<circle cx="25.5715" cy="123.176" r="5.29412" stroke="#B0B7D3" style="stroke:#B0B7D3;stroke:color(display-p3 0.6902 0.7176 0.8275);stroke-opacity:1;" stroke-width="3.52941"/>
</svg>
