<svg width="160" height="139" viewBox="0 0 160 139" fill="none" xmlns="http://www.w3.org/2000/svg">
<path d="M0 0.140625H150.588C155.786 0.140625 160 4.35442 160 9.55239V138.964H0V0.140625Z" fill="#E6E9F6" style="fill:#E6E9F6;fill:color(display-p3 0.9020 0.9137 0.9647);fill-opacity:1;"/>
<path d="M1.76562 1.90527V137.2H158.236" stroke="#B0B7D3" style="stroke:#B0B7D3;stroke:color(display-p3 0.6902 0.7176 0.8275);stroke-opacity:1;" stroke-width="3.52941" stroke-linecap="square"/>
<path d="M10.5898 62.2893L20.5898 55.742L30.5898 65.563L38.5898 57.3788L46.5898 67.1998H56.5898L64.5898 29.5527L74.5898 63.9256L84.5898 59.0157L92.5898 63.9261L100.59 57.3788L108.59 63.9261L116.59 57.3788L128.59 52.4683L144.59 60.6525L150.59 55.742" stroke="#B0B7D3" style="stroke:#B0B7D3;stroke:color(display-p3 0.6902 0.7176 0.8275);stroke-opacity:1;" stroke-width="3.52941" stroke-linecap="square"/>
<path d="M10.5898 114.242H22.5898L30.5898 118.964L40.5898 111.644L50.5898 114.242L56.5898 118.964L64.5898 109.185L72.5898 116.529L82.5898 112.825L92.5898 116.529L100.59 111.644L110.59 116.529L124.59 112.825L130.59 88.376L136.59 112.825L150.59 110.409" stroke="#B0B7D3" style="stroke:#B0B7D3;stroke:color(display-p3 0.6902 0.7176 0.8275);stroke-opacity:1;" stroke-width="3.52941" stroke-linecap="square"/>
<circle cx="129.766" cy="88.7295" r="18" stroke="#706C86" style="stroke:#706C86;stroke:color(display-p3 0.4392 0.4235 0.5255);stroke-opacity:1;" stroke-width="3.52941" stroke-linecap="square" stroke-linejoin="round" stroke-dasharray="4.71 8.24"/>
<circle cx="65.0586" cy="29.9053" r="18" stroke="#706C86" style="stroke:#706C86;stroke:color(display-p3 0.4392 0.4235 0.5255);stroke-opacity:1;" stroke-width="3.52941" stroke-linecap="square" stroke-linejoin="round" stroke-dasharray="4.71 8.24"/>
</svg>
