<svg width="147" height="146" viewBox="0 0 147 146" fill="none" xmlns="http://www.w3.org/2000/svg">
<path fill-rule="evenodd" clip-rule="evenodd" d="M10.9193 31.3896H40.3067L41.568 45.4041H9.65796L10.9193 31.3896ZM9.29758 49.4082L0.648438 145.507H31.0434C41.5332 145.507 49.7587 136.409 48.809 125.857L41.9284 49.4082H9.29758Z" fill="#B0B7D3" style="fill:#B0B7D3;fill:color(display-p3 0.6902 0.7176 0.8275);fill-opacity:1;"/>
<path d="M65.7656 19.4922C79.7656 16.4922 82.4323 5.49219 83.7656 0.492188C58.7656 14.4922 57.7656 2.49219 45.7656 5.49219C33.7656 8.49219 27.7656 16.4922 26.7656 24.4922C48.7656 12.4922 51.7656 22.4922 65.7656 19.4922Z" fill="#D6DAEC" style="fill:#D6DAEC;fill:color(display-p3 0.8392 0.8549 0.9255);fill-opacity:1;"/>
<path d="M145.353 65.5068V144.33H28.8828V79.9312L66.914 65.5068V79.9312L107.322 65.5068V79.9312L145.353 65.5068Z" fill="#D6DAEC" stroke="#D6DAEC" style="fill:#D6DAEC;fill:color(display-p3 0.8392 0.8549 0.9255);fill-opacity:1;stroke:#D6DAEC;stroke:color(display-p3 0.8392 0.8549 0.9255);stroke-opacity:1;" stroke-width="2.35294" stroke-linecap="round" stroke-linejoin="round"/>
<path d="M38.2969 145.507V123.154H55.9439M73.591 145.507V123.154H55.9439M55.9439 123.154V145.507" stroke="#706C86" style="stroke:#706C86;stroke:color(display-p3 0.4392 0.4235 0.5255);stroke-opacity:1;" stroke-width="3.52941"/>
<path d="M121.824 97.2715H131.236V106.683C131.236 107.983 130.183 109.036 128.883 109.036H121.824V97.2715Z" fill="#B0B7D3" style="fill:#B0B7D3;fill:color(display-p3 0.6902 0.7176 0.8275);fill-opacity:1;"/>
<path d="M121.824 116.095H131.236V125.506C131.236 126.806 130.183 127.859 128.883 127.859H121.824V116.095Z" fill="#B0B7D3" style="fill:#B0B7D3;fill:color(display-p3 0.6902 0.7176 0.8275);fill-opacity:1;"/>
<path d="M105.355 97.2715H114.767V106.683C114.767 107.983 113.714 109.036 112.414 109.036H105.355V97.2715Z" fill="#B0B7D3" style="fill:#B0B7D3;fill:color(display-p3 0.6902 0.7176 0.8275);fill-opacity:1;"/>
<path d="M105.355 116.095H114.767V125.506C114.767 126.806 113.714 127.859 112.414 127.859H105.355V116.095Z" fill="#B0B7D3" style="fill:#B0B7D3;fill:color(display-p3 0.6902 0.7176 0.8275);fill-opacity:1;"/>
<path d="M88.8828 97.2715H98.2946V106.683C98.2946 107.983 97.2411 109.036 95.9416 109.036H88.8828V97.2715Z" fill="#B0B7D3" style="fill:#B0B7D3;fill:color(display-p3 0.6902 0.7176 0.8275);fill-opacity:1;"/>
<path d="M88.8828 116.095H98.2946V125.506C98.2946 126.806 97.2411 127.859 95.9416 127.859H88.8828V116.095Z" fill="#B0B7D3" style="fill:#B0B7D3;fill:color(display-p3 0.6902 0.7176 0.8275);fill-opacity:1;"/>
</svg>
