<svg width="142" height="142" viewBox="0 0 142 142" fill="none" xmlns="http://www.w3.org/2000/svg">
<path d="M108.645 49.0381L71 64.7236V108.643L108.645 92.9574V49.0381Z" fill="#706C86" style="fill:#706C86;fill:color(display-p3 0.4392 0.4235 0.5255);fill-opacity:1;"/>
<path d="M71.0045 108.647L33.3594 92.962V49.0427L71.0045 64.7281V108.647Z" fill="#B0B7D3" style="fill:#B0B7D3;fill:color(display-p3 0.6902 0.7176 0.8275);fill-opacity:1;"/>
<path d="M71.0045 33.3525L33.3594 49.038L71.0045 64.7235L108.65 49.038L71.0045 33.3525Z" fill="#D6DAEC" style="fill:#D6DAEC;fill:color(display-p3 0.8392 0.8549 0.9255);fill-opacity:1;"/>
<path d="M71 17V3" stroke="#D6DAEC" style="stroke:#D6DAEC;stroke:color(display-p3 0.8392 0.8549 0.9255);stroke-opacity:1;" stroke-width="4.70588" stroke-linecap="square" stroke-linejoin="round"/>
<path d="M71 139V125" stroke="#D6DAEC" style="stroke:#D6DAEC;stroke:color(display-p3 0.8392 0.8549 0.9255);stroke-opacity:1;" stroke-width="4.70588" stroke-linecap="square" stroke-linejoin="round"/>
<path d="M125 71L139 71" stroke="#D6DAEC" style="stroke:#D6DAEC;stroke:color(display-p3 0.8392 0.8549 0.9255);stroke-opacity:1;" stroke-width="4.70588" stroke-linecap="square" stroke-linejoin="round"/>
<path d="M3 71L17 71" stroke="#D6DAEC" style="stroke:#D6DAEC;stroke:color(display-p3 0.8392 0.8549 0.9255);stroke-opacity:1;" stroke-width="4.70588" stroke-linecap="square" stroke-linejoin="round"/>
<path fill-rule="evenodd" clip-rule="evenodd" d="M0.410156 22.6142C0.410156 10.3523 10.3504 0.412109 22.6123 0.412109H38.0572V6.20397H22.6123C13.5491 6.20397 6.20201 13.5511 6.20201 22.6142V38.0592H0.410156V22.6142Z" fill="#B0B7D3" style="fill:#B0B7D3;fill:color(display-p3 0.6902 0.7176 0.8275);fill-opacity:1;"/>
<path fill-rule="evenodd" clip-rule="evenodd" d="M141.59 22.6142C141.59 10.3523 131.65 0.412109 119.388 0.412109H103.943V6.20397H119.388C128.451 6.20397 135.798 13.5511 135.798 22.6142V38.0592H141.59V22.6142Z" fill="#B0B7D3" style="fill:#B0B7D3;fill:color(display-p3 0.6902 0.7176 0.8275);fill-opacity:1;"/>
<path fill-rule="evenodd" clip-rule="evenodd" d="M0.410156 119.386C0.410156 131.648 10.3504 141.588 22.6123 141.588H38.0572V135.796H22.6123C13.5491 135.796 6.20201 128.449 6.20201 119.386V103.941H0.410156V119.386Z" fill="#B0B7D3" style="fill:#B0B7D3;fill:color(display-p3 0.6902 0.7176 0.8275);fill-opacity:1;"/>
<path fill-rule="evenodd" clip-rule="evenodd" d="M141.59 119.386C141.59 131.648 131.65 141.588 119.388 141.588H103.943V135.796H119.388C128.451 135.796 135.798 128.449 135.798 119.386V103.941H141.59V119.386Z" fill="#B0B7D3" style="fill:#B0B7D3;fill:color(display-p3 0.6902 0.7176 0.8275);fill-opacity:1;"/>
</svg>
