<svg width="144" height="142" viewBox="0 0 144 142" fill="none" xmlns="http://www.w3.org/2000/svg">
<path d="M16.7054 40.4121L16.7054 2.76505M16.7054 2.76505L6.11719 13.2226M16.7054 2.76505L27.2937 13.2226" stroke="#706C86" style="stroke:#706C86;stroke:color(display-p3 0.4392 0.4235 0.5255);stroke-opacity:1;" stroke-width="4.70588" stroke-linecap="round" stroke-linejoin="round"/>
<path d="M128.47 51L128.47 88.6471M128.47 88.6471L139.059 78.1895M128.47 88.6471L117.882 78.1895" stroke="#706C86" style="stroke:#706C86;stroke:color(display-p3 0.4392 0.4235 0.5255);stroke-opacity:1;" stroke-width="4.70588" stroke-linecap="round" stroke-linejoin="round"/>
<path d="M40.2344 0.412109H143.764V34.5298C143.764 37.7785 141.13 40.4121 137.881 40.4121H40.2344V0.412109Z" fill="#D6DAEC" style="fill:#D6DAEC;fill:color(display-p3 0.8392 0.8549 0.9255);fill-opacity:1;"/>
<path d="M58.9099 32.1777C58.7064 32.1777 58.5233 32.1044 58.3605 31.9577C58.218 31.8111 58.1468 31.6225 58.1468 31.392V15.772L53.7515 19.2606C53.5683 19.4073 53.375 19.4596 53.1715 19.4177C52.9884 19.3758 52.8256 19.2606 52.6831 19.072L51.157 17.0292C51.0349 16.8406 50.984 16.6415 51.0044 16.432C51.0451 16.2225 51.157 16.0549 51.3401 15.9292L58.2994 10.3977C58.4215 10.3139 58.5334 10.2615 58.6352 10.2406C58.7573 10.1987 58.8895 10.1777 59.032 10.1777H62.2674C62.4709 10.1777 62.6439 10.2511 62.7863 10.3977C62.9288 10.5444 63 10.733 63 10.9634V31.392C63 31.6225 62.9288 31.8111 62.7863 31.9577C62.6439 32.1044 62.4709 32.1777 62.2674 32.1777H58.9099Z" fill="#706C86" style="fill:#706C86;fill:color(display-p3 0.4392 0.4235 0.5255);fill-opacity:1;"/>
<path d="M79.0586 20.4121L130.823 20.4121" stroke="#B0B7D3" style="stroke:#B0B7D3;stroke:color(display-p3 0.6902 0.7176 0.8275);stroke-opacity:1;" stroke-width="4.70588" stroke-linecap="square" stroke-linejoin="round"/>
<path d="M0.234375 51H103.764V85.1176C103.764 88.3664 101.13 91 97.8814 91H0.234375V51Z" fill="#D6DAEC" style="fill:#D6DAEC;fill:color(display-p3 0.8392 0.8549 0.9255);fill-opacity:1;"/>
<path d="M39.0586 71L90.8233 71" stroke="#B0B7D3" style="stroke:#B0B7D3;stroke:color(display-p3 0.6902 0.7176 0.8275);stroke-opacity:1;" stroke-width="4.70588" stroke-linecap="square" stroke-linejoin="round"/>
<path d="M11.2055 82.7837C11.3425 82.9279 11.5187 83 11.7339 83H26.2661C26.4813 83 26.6575 82.9279 26.7945 82.7837C26.9315 82.6395 27 82.4541 27 82.2275V79.6011C27 79.3745 26.9315 79.1891 26.7945 79.0449C26.6575 78.9007 26.4813 78.8287 26.2661 78.8287H18.2807L24.3284 72.8034C25.0526 72.0206 25.6006 71.2069 25.9725 70.3624C26.3639 69.5178 26.5596 68.6011 26.5596 67.6124C26.5596 66.3146 26.2758 65.1713 25.7083 64.1826C25.1407 63.1938 24.2991 62.4213 23.1835 61.8652C22.0679 61.2884 20.6881 61 19.044 61C17.8502 61 16.7835 61.1957 15.844 61.5871C14.9046 61.9579 14.1021 62.4728 13.4367 63.132C12.7713 63.7912 12.2526 64.5431 11.8807 65.3876C11.5284 66.2322 11.3425 67.1283 11.3229 68.0758C11.3229 68.2406 11.3817 68.3951 11.4991 68.5393C11.6165 68.6629 11.7731 68.7247 11.9688 68.7247H15.0807C15.2765 68.7247 15.4624 68.6732 15.6385 68.5702C15.8343 68.4672 15.9615 68.2818 16.0202 68.014C16.0985 67.4785 16.255 66.9841 16.4899 66.5309C16.7248 66.0777 17.0477 65.7172 17.4587 65.4494C17.8893 65.161 18.4177 65.0169 19.044 65.0169C19.9835 65.0169 20.6587 65.2846 21.0697 65.8202C21.5003 66.3352 21.7156 66.9944 21.7156 67.7978C21.7156 68.4157 21.5003 69.0543 21.0697 69.7135C20.6391 70.3727 19.9737 71.1039 19.0734 71.9073L11.7339 78.8904C11.4208 79.1582 11.2153 79.4363 11.1174 79.7247C11.0391 79.9925 11 80.2088 11 80.3736V82.2275C11 82.4541 11.0685 82.6395 11.2055 82.7837Z" fill="#706C86" style="fill:#706C86;fill:color(display-p3 0.4392 0.4235 0.5255);fill-opacity:1;"/>
<path d="M40.2344 101.588H143.764V135.706C143.764 138.954 141.13 141.588 137.881 141.588H40.2344V101.588Z" fill="#D6DAEC" style="fill:#D6DAEC;fill:color(display-p3 0.8392 0.8549 0.9255);fill-opacity:1;"/>
<path d="M79.0586 121.588L130.823 121.588" stroke="#B0B7D3" style="stroke:#B0B7D3;stroke:color(display-p3 0.6902 0.7176 0.8275);stroke-opacity:1;" stroke-width="4.70588" stroke-linecap="square" stroke-linejoin="round"/>
<path d="M58.9841 133.822C57.418 133.822 56.0741 133.636 54.9524 133.265C53.8307 132.893 52.9101 132.418 52.1905 131.839C51.4709 131.261 50.9312 130.631 50.5714 129.949C50.2116 129.247 50.0212 128.575 50 127.935C50 127.749 50.0635 127.594 50.1905 127.47C50.3175 127.346 50.4762 127.284 50.6667 127.284H54.1587C54.3915 127.284 54.582 127.336 54.7302 127.439C54.8783 127.522 55.0159 127.677 55.1429 127.904C55.3122 128.379 55.5873 128.761 55.9683 129.05C56.3492 129.34 56.7937 129.546 57.3016 129.67C57.8307 129.773 58.3915 129.825 58.9841 129.825C60.1693 129.825 61.1005 129.557 61.7778 129.019C62.455 128.482 62.7937 127.728 62.7937 126.757C62.7937 125.766 62.4762 125.053 61.8413 124.619C61.2063 124.186 60.3069 123.969 59.1429 123.969H55.746C55.5344 123.969 55.3545 123.896 55.2063 123.752C55.0582 123.607 54.9841 123.432 54.9841 123.225V121.707C54.9841 121.459 55.0265 121.252 55.1111 121.087C55.2169 120.922 55.3228 120.798 55.4286 120.715L60.8889 115.819H51.9365C51.7037 115.819 51.5132 115.747 51.3651 115.603C51.2169 115.458 51.1429 115.282 51.1429 115.076V112.597C51.1429 112.37 51.2169 112.184 51.3651 112.039C51.5132 111.895 51.7037 111.822 51.9365 111.822H66.0317C66.2645 111.822 66.455 111.895 66.6032 112.039C66.7513 112.184 66.8254 112.37 66.8254 112.597V114.828C66.8254 115.055 66.7831 115.251 66.6984 115.417C66.6138 115.561 66.5079 115.675 66.381 115.757L61.2063 120.746L61.5238 120.777C62.7725 120.901 63.8836 121.201 64.8571 121.676C65.8307 122.151 66.5926 122.833 67.1429 123.721C67.7143 124.588 68 125.694 68 127.036C68 128.441 67.6085 129.649 66.8254 130.662C66.0423 131.674 64.9735 132.459 63.619 133.017C62.2646 133.554 60.7196 133.822 58.9841 133.822Z" fill="#706C86" style="fill:#706C86;fill:color(display-p3 0.4392 0.4235 0.5255);fill-opacity:1;"/>
</svg>
