<svg width="128" height="146" viewBox="0 0 128 146" fill="none" xmlns="http://www.w3.org/2000/svg">
<path fill-rule="evenodd" clip-rule="evenodd" d="M14.3678 15.8242H37.3043L38.2888 25.9377H13.3834L14.3678 15.8242ZM13.1021 28.8273L6.35156 98.1772H30.0745C38.2616 98.1772 44.6815 91.6117 43.9403 83.9968L38.5701 28.8273H13.1021Z" fill="#B0B7D3" style="fill:#B0B7D3;fill:color(display-p3 0.6902 0.7176 0.8275);fill-opacity:1;"/>
<path d="M114.589 33.4707V98.1766H35.7656V45.9517L76.3717 33.4707V45.9517L114.589 33.4707Z" fill="#D6DAEC" stroke="#D6DAEC" style="fill:#D6DAEC;fill:color(display-p3 0.8392 0.8549 0.9255);fill-opacity:1;stroke:#D6DAEC;stroke:color(display-p3 0.8392 0.8549 0.9255);stroke-opacity:1;" stroke-width="2.35294" stroke-linecap="round" stroke-linejoin="round"/>
<path d="M86 10.1115C80.7312 5.03768 73.7097 1.94141 66 1.94141C58.2903 1.94141 51.2688 5.03768 46 10.1115M52.549 17.0008C56.1359 13.6802 60.8442 11.666 66.0002 11.666C71.1561 11.666 75.8644 13.6802 79.4514 17.0008M72.8448 23.8705C70.9587 22.3168 68.5823 21.3905 66 21.3905C63.3786 21.3905 60.9694 22.345 59.0699 23.9414" stroke="#706C86" style="stroke:#706C86;stroke:color(display-p3 0.4392 0.4235 0.5255);stroke-opacity:1;" stroke-width="3.52941" stroke-linecap="square" stroke-linejoin="round"/>
<path d="M68.1172 138.176C68.1172 140.45 66.2737 142.294 63.9995 142.294V145.823C68.2229 145.823 71.6466 142.4 71.6466 138.176H68.1172ZM63.9995 142.294C61.7254 142.294 59.8819 140.45 59.8819 138.176H56.3525C56.3525 142.4 59.7762 145.823 63.9995 145.823V142.294ZM59.8819 138.176C59.8819 135.902 61.7254 134.059 63.9995 134.059V130.529C59.7762 130.529 56.3525 133.953 56.3525 138.176H59.8819ZM63.9995 134.059C66.2737 134.059 68.1172 135.902 68.1172 138.176H71.6466C71.6466 133.953 68.2229 130.529 63.9995 130.529V134.059Z" fill="#706C86" style="fill:#706C86;fill:color(display-p3 0.4392 0.4235 0.5255);fill-opacity:1;"/>
<path d="M29.293 124.059C29.293 126.333 27.4494 128.177 25.1753 128.177V131.706C29.3987 131.706 32.8224 128.282 32.8224 124.059H29.293ZM25.1753 128.177C22.9012 128.177 21.0577 126.333 21.0577 124.059H17.5283C17.5283 128.282 20.952 131.706 25.1753 131.706V128.177ZM21.0577 124.059C21.0577 121.785 22.9012 119.941 25.1753 119.941V116.412C20.952 116.412 17.5283 119.836 17.5283 124.059H21.0577ZM25.1753 119.941C27.4494 119.941 29.293 121.785 29.293 124.059H32.8224C32.8224 119.836 29.3987 116.412 25.1753 116.412V119.941Z" fill="#706C86" style="fill:#706C86;fill:color(display-p3 0.4392 0.4235 0.5255);fill-opacity:1;"/>
<path d="M106.941 124.059C106.941 126.333 105.098 128.177 102.824 128.177V131.706C107.047 131.706 110.471 128.282 110.471 124.059H106.941ZM102.824 128.177C100.55 128.177 98.7061 126.333 98.7061 124.059H95.1767C95.1767 128.282 98.6004 131.706 102.824 131.706V128.177ZM98.7061 124.059C98.7061 121.785 100.55 119.941 102.824 119.941V116.412C98.6004 116.412 95.1767 119.836 95.1767 124.059H98.7061ZM102.824 119.941C105.098 119.941 106.941 121.785 106.941 124.059H110.471C110.471 119.836 107.047 116.412 102.824 116.412V119.941Z" fill="#706C86" style="fill:#706C86;fill:color(display-p3 0.4392 0.4235 0.5255);fill-opacity:1;"/>
<path d="M64 131.942V97.9424" stroke="#706C86" style="stroke:#706C86;stroke:color(display-p3 0.4392 0.4235 0.5255);stroke-opacity:1;" stroke-width="3.52941" stroke-linecap="round" stroke-linejoin="round"/>
<path d="M96 123.942H84V97.9424" stroke="#706C86" style="stroke:#706C86;stroke:color(display-p3 0.4392 0.4235 0.5255);stroke-opacity:1;" stroke-width="3.52941" stroke-linecap="round" stroke-linejoin="round"/>
<path d="M32 123.942H44V97.9424" stroke="#706C86" style="stroke:#706C86;stroke:color(display-p3 0.4392 0.4235 0.5255);stroke-opacity:1;" stroke-width="3.52941" stroke-linecap="round" stroke-linejoin="round"/>
<path d="M2 97.9424H126" stroke="#706C86" style="stroke:#706C86;stroke:color(display-p3 0.4392 0.4235 0.5255);stroke-opacity:1;" stroke-width="3.52941" stroke-linecap="square" stroke-linejoin="round"/>
<path d="M99.293 59.3535H108.705V68.7653C108.705 70.0648 107.651 71.1182 106.352 71.1182H99.293V59.3535Z" fill="#B0B7D3" style="fill:#B0B7D3;fill:color(display-p3 0.6902 0.7176 0.8275);fill-opacity:1;"/>
<path d="M82.8242 59.3535H92.236V68.7653C92.236 70.0648 91.1825 71.1182 89.883 71.1182H82.8242V59.3535Z" fill="#B0B7D3" style="fill:#B0B7D3;fill:color(display-p3 0.6902 0.7176 0.8275);fill-opacity:1;"/>
<path d="M66.3516 59.3535H75.7633V68.7653C75.7633 70.0648 74.7099 71.1182 73.4104 71.1182H66.3516V59.3535Z" fill="#B0B7D3" style="fill:#B0B7D3;fill:color(display-p3 0.6902 0.7176 0.8275);fill-opacity:1;"/>
</svg>
