<svg width="124" height="122" viewBox="0 0 124 122" fill="none" xmlns="http://www.w3.org/2000/svg">
<path fill-rule="evenodd" clip-rule="evenodd" d="M63.7008 53.6006V85.9006H60.3008V53.6006H63.7008Z" fill="#706C86" style="fill:#706C86;fill:color(display-p3 0.4392 0.4235 0.5255);fill-opacity:1;"/>
<path fill-rule="evenodd" clip-rule="evenodd" d="M27.3397 74.0006C21.602 74.0006 16.9508 78.6518 16.9508 84.3895V86.0895H13.5508V84.3895C13.5508 76.7741 19.7243 70.6006 27.3397 70.6006H96.8508C105.301 70.6006 112.151 77.4506 112.151 85.9006V87.6006H108.751V85.9006C108.751 79.3284 103.423 74.0006 96.8508 74.0006H27.3397Z" fill="#706C86" style="fill:#706C86;fill:color(display-p3 0.4392 0.4235 0.5255);fill-opacity:1;"/>
<path d="M99.3984 101.994C99.3984 99.9311 99.3984 98.8996 99.7999 98.1117C100.153 97.4187 100.717 96.8552 101.41 96.502C102.197 96.1006 103.229 96.1006 105.292 96.1006H115.605C117.668 96.1006 118.699 96.1006 119.487 96.502C120.18 96.8552 120.744 97.4187 121.097 98.1117C121.498 98.8996 121.498 99.9311 121.498 101.994V112.307C121.498 114.37 121.498 115.402 121.097 116.189C120.744 116.883 120.18 117.446 119.487 117.799C118.699 118.201 117.668 118.201 115.605 118.201H105.292C103.229 118.201 102.197 118.201 101.41 117.799C100.717 117.446 100.153 116.883 99.7999 116.189C99.3984 115.402 99.3984 114.37 99.3984 112.307V101.994Z" fill="#B0B7D3" style="fill:#B0B7D3;fill:color(display-p3 0.6902 0.7176 0.8275);fill-opacity:1;"/>
<path fill-rule="evenodd" clip-rule="evenodd" d="M105.226 94.4004H115.672C116.647 94.4004 117.48 94.4003 118.164 94.4562C118.883 94.515 119.586 94.644 120.26 94.9871C121.273 95.5033 122.096 96.3268 122.612 97.3397C122.956 98.0133 123.085 98.7168 123.143 99.4361C123.199 100.12 123.199 100.953 123.199 101.927V112.374C123.199 113.348 123.199 114.181 123.143 114.865C123.085 115.584 122.956 116.287 122.612 116.961C122.096 117.974 121.273 118.798 120.26 119.314C119.586 119.657 118.883 119.786 118.164 119.845C117.48 119.9 116.647 119.9 115.672 119.9H105.226C104.251 119.9 103.419 119.9 102.735 119.845C102.016 119.786 101.312 119.657 100.639 119.314C99.6256 118.798 98.8021 117.974 98.286 116.961C97.9428 116.287 97.8138 115.584 97.755 114.865C97.6992 114.181 97.6992 113.348 97.6992 112.374V101.927C97.6992 100.952 97.6992 100.12 97.755 99.4361C97.8138 98.7168 97.9428 98.0133 98.286 97.3397C98.8021 96.3268 99.6256 95.5033 100.639 94.9871C101.312 94.644 102.016 94.515 102.735 94.4562C103.419 94.4003 104.251 94.4004 105.226 94.4004ZM103.012 97.8449C102.503 97.8865 102.296 97.9583 102.182 98.0166C101.809 98.2067 101.506 98.5101 101.315 98.8833C101.257 98.9977 101.185 99.2039 101.144 99.713C101.101 100.242 101.099 100.934 101.099 101.994V112.307C101.099 113.367 101.101 114.059 101.144 114.588C101.185 115.097 101.257 115.303 101.315 115.417C101.506 115.791 101.809 116.094 102.182 116.284C102.296 116.342 102.503 116.414 103.012 116.456C103.541 116.499 104.233 116.5 105.293 116.5H115.606C116.665 116.5 117.358 116.499 117.887 116.456C118.396 116.414 118.602 116.342 118.716 116.284C119.089 116.094 119.393 115.791 119.583 115.417C119.641 115.303 119.713 115.097 119.755 114.588C119.798 114.059 119.799 113.367 119.799 112.307V101.994C119.799 100.934 119.798 100.242 119.755 99.713C119.713 99.2039 119.641 98.9977 119.583 98.8833C119.393 98.5101 119.089 98.2067 118.716 98.0166C118.602 97.9583 118.396 97.8865 117.887 97.8449C117.358 97.8017 116.665 97.8004 115.606 97.8004H105.293C104.233 97.8004 103.541 97.8017 103.012 97.8449Z" fill="#B0B7D3" style="fill:#B0B7D3;fill:color(display-p3 0.6910 0.7161 0.8292);fill-opacity:1;"/>
<path d="M62 119.9C69.0416 119.9 74.75 114.192 74.75 107.15C74.75 100.109 69.0416 94.4004 62 94.4004C54.9584 94.4004 49.25 100.109 49.25 107.15C49.25 114.192 54.9584 119.9 62 119.9Z" fill="#B0B7D3" style="fill:#B0B7D3;fill:color(display-p3 0.6902 0.7176 0.8275);fill-opacity:1;"/>
<path fill-rule="evenodd" clip-rule="evenodd" d="M62.0008 96.1002C55.898 96.1002 50.9508 101.047 50.9508 107.15C50.9508 113.253 55.898 118.2 62.0008 118.2C68.1035 118.2 73.0508 113.253 73.0508 107.15C73.0508 101.047 68.1035 96.1002 62.0008 96.1002ZM47.5508 107.15C47.5508 99.1697 54.0203 92.7002 62.0008 92.7002C69.9813 92.7002 76.4508 99.1697 76.4508 107.15C76.4508 115.131 69.9813 121.6 62.0008 121.6C54.0203 121.6 47.5508 115.131 47.5508 107.15Z" fill="#B0B7D3" style="fill:#B0B7D3;fill:color(display-p3 0.6910 0.7161 0.8292);fill-opacity:1;"/>
<path d="M3.31227 115.253L13.5298 97.814C14.0945 96.8502 14.3769 96.3683 14.7453 96.2065C15.0666 96.0653 15.4334 96.0653 15.7547 96.2065C16.1231 96.3683 16.4055 96.8502 16.9702 97.814L27.1877 115.253C27.7545 116.22 28.0378 116.703 27.9959 117.1C27.9594 117.447 27.7758 117.761 27.4909 117.966C27.1643 118.201 26.5987 118.201 25.4676 118.201H5.03243C3.90131 118.201 3.33575 118.201 3.00908 117.966C2.72416 117.761 2.54059 117.447 2.50406 117.1C2.46217 116.703 2.74554 116.22 3.31227 115.253Z" fill="#B0B7D3" style="fill:#B0B7D3;fill:color(display-p3 0.6902 0.7176 0.8275);fill-opacity:1;"/>
<path fill-rule="evenodd" clip-rule="evenodd" d="M16.4393 94.6499C17.0493 94.9179 17.4316 95.3845 17.6712 95.7189C17.9049 96.0449 18.1511 96.4652 18.4049 96.8985L28.6882 114.449C28.943 114.884 29.1901 115.306 29.3604 115.669C29.5339 116.04 29.758 116.608 29.6873 117.279C29.5995 118.111 29.1586 118.861 28.4836 119.346C27.9423 119.735 27.3438 119.827 26.9351 119.864C26.5335 119.901 26.0423 119.9 25.5329 119.9H4.96861C4.45914 119.9 3.968 119.901 3.56634 119.864C3.15764 119.827 2.55919 119.735 2.01792 119.346C1.34285 118.861 0.902018 118.111 0.814177 117.279C0.743448 116.608 0.967538 116.04 1.14107 115.669C1.31139 115.306 1.55851 114.884 1.81327 114.449L1.84624 114.393L12.0638 96.9544C12.0748 96.9357 12.0857 96.9171 12.0966 96.8984C12.3504 96.4652 12.5966 96.0448 12.8302 95.7189C13.0699 95.3845 13.4522 94.9179 14.0622 94.6499C14.8193 94.3172 15.6822 94.3172 16.4393 94.6499ZM15.2507 98.243C15.3233 98.365 15.4067 98.5069 15.5041 98.6732L25.7217 116.112C25.8078 116.259 25.8826 116.387 25.9479 116.499C25.8098 116.5 25.6515 116.5 25.4683 116.5H5.03317C4.84994 116.5 4.69164 116.5 4.55362 116.499C4.61886 116.387 4.69371 116.259 4.77978 116.112L14.9974 98.6732C15.0948 98.5069 15.1781 98.365 15.2507 98.243Z" fill="#B0B7D3" style="fill:#B0B7D3;fill:color(display-p3 0.6910 0.7161 0.8292);fill-opacity:1;"/>
<path d="M28 4.39941H96V51.6002C96 55.3557 92.9555 58.4002 89.2 58.4002H28V4.39941Z" fill="#B0B7D3" style="fill:#B0B7D3;fill:color(display-p3 0.6902 0.7176 0.8275);fill-opacity:1;"/>
<path d="M28 4.39941H96V37.3996L80 53.3996H28V4.39941Z" fill="#D6DAEC" style="fill:#D6DAEC;fill:color(display-p3 0.8392 0.8549 0.9255);fill-opacity:1;"/>
<path d="M63.9722 44.4014C63.8171 44.4014 63.6879 44.3499 63.5845 44.2471C63.4811 44.1271 63.4294 43.9899 63.4294 43.8357C63.4294 43.7671 63.4467 43.6899 63.4811 43.6042L69.5805 29.8471H61.6461C61.4738 29.8471 61.3188 29.7871 61.1809 29.6671C61.0603 29.5471 61 29.4014 61 29.2299V27.0442C61 26.8557 61.0603 26.7014 61.1809 26.5814C61.3188 26.4614 61.4738 26.4014 61.6461 26.4014H73.3539C73.5606 26.4014 73.7157 26.4614 73.8191 26.5814C73.9397 26.7014 74 26.8557 74 27.0442V28.9728C74 29.2299 73.9742 29.4442 73.9225 29.6157C73.888 29.7699 73.8277 29.9328 73.7416 30.1042L67.668 43.7842C67.6163 43.8871 67.5215 44.0157 67.3837 44.1699C67.2631 44.3242 67.0649 44.4014 66.7893 44.4014H63.9722Z" fill="#706C86" style="fill:#706C86;fill:color(display-p3 0.4392 0.4235 0.5255);fill-opacity:1;"/>
<path d="M55.5916 44.4014C55.422 44.4014 55.2694 44.3414 55.1337 44.2214C55.015 44.1014 54.9557 43.9471 54.9557 43.7585V30.9785L51.2929 33.8328C51.1403 33.9528 50.9792 33.9957 50.8096 33.9614C50.657 33.9271 50.5213 33.8328 50.4026 33.6785L49.1308 32.0071C49.0291 31.8528 48.9867 31.6899 49.0036 31.5185C49.0375 31.3471 49.1308 31.2099 49.2834 31.1071L55.0828 26.5814C55.1846 26.5128 55.2779 26.4699 55.3626 26.4528C55.4644 26.4185 55.5746 26.4014 55.6933 26.4014H58.3895C58.5591 26.4014 58.7032 26.4614 58.8219 26.5814C58.9406 26.7014 59 26.8557 59 27.0442V43.7585C59 43.9471 58.9406 44.1014 58.8219 44.2214C58.7032 44.3414 58.5591 44.4014 58.3895 44.4014H55.5916Z" fill="#706C86" style="fill:#706C86;fill:color(display-p3 0.4392 0.4235 0.5255);fill-opacity:1;"/>
<rect x="36" y="0.400391" width="3" height="10" rx="1.5" fill="#706C86" style="fill:#706C86;fill:color(display-p3 0.4392 0.4235 0.5255);fill-opacity:1;"/>
<rect x="46" y="0.400391" width="3" height="10" rx="1.5" fill="#706C86" style="fill:#706C86;fill:color(display-p3 0.4392 0.4235 0.5255);fill-opacity:1;"/>
<rect x="56" y="0.400391" width="3" height="10" rx="1.5" fill="#706C86" style="fill:#706C86;fill:color(display-p3 0.4392 0.4235 0.5255);fill-opacity:1;"/>
<rect x="66" y="0.400391" width="3" height="10" rx="1.5" fill="#706C86" style="fill:#706C86;fill:color(display-p3 0.4392 0.4235 0.5255);fill-opacity:1;"/>
<rect x="76" y="0.400391" width="3" height="10" rx="1.5" fill="#706C86" style="fill:#706C86;fill:color(display-p3 0.4392 0.4235 0.5255);fill-opacity:1;"/>
<rect x="86" y="0.400391" width="3" height="10" rx="1.5" fill="#706C86" style="fill:#706C86;fill:color(display-p3 0.4392 0.4235 0.5255);fill-opacity:1;"/>
<rect x="32" y="14.4004" width="60" height="3" rx="1.5" fill="#706C86" style="fill:#706C86;fill:color(display-p3 0.4392 0.4235 0.5255);fill-opacity:1;"/>
<path d="M96 37.4004H80V53.4004L96 37.4004Z" fill="white" style="fill:white;fill-opacity:1;"/>
</svg>
